<svg width="1737" height="829" viewBox="0 0 1737 829" fill="none" xmlns="http://www.w3.org/2000/svg">
<g opacity="0.1" clip-path="url(#clip0_147_210)">
<path d="M1628.62 500.791C1628.44 500.791 1628.26 500.791 1628.08 500.723C1628.08 500.723 1625.81 500.161 1621.7 499.644C1620.46 499.487 1619.59 498.362 1619.74 497.126C1619.9 495.889 1621.02 495.034 1622.26 495.169C1626.66 495.731 1629.05 496.316 1629.16 496.339C1630.37 496.631 1631.09 497.868 1630.8 499.059C1630.55 500.071 1629.63 500.768 1628.62 500.768V500.791Z" fill="#C6DAF7"/>
<path d="M1282.4 634.404C1281.16 634.404 1279.97 633.437 1279.97 632.155C1279.97 630.874 1281 629.907 1282.28 629.907C1286.78 629.907 1291.16 629.794 1295.45 629.547C1296.67 629.434 1297.74 630.424 1297.81 631.661C1297.88 632.897 1296.94 633.954 1295.7 634.022C1291.34 634.269 1286.87 634.381 1282.42 634.381L1282.4 634.404ZM1264.28 633.774C1264.28 633.774 1264.17 633.774 1264.13 633.774C1259.7 633.482 1255.18 633.055 1250.67 632.538C1249.43 632.403 1248.55 631.278 1248.69 630.042C1248.82 628.805 1249.92 627.905 1251.18 628.063C1255.63 628.58 1260.1 628.985 1264.44 629.277C1265.68 629.367 1266.62 630.424 1266.53 631.683C1266.44 632.875 1265.45 633.774 1264.28 633.774V633.774ZM1313.38 632.358C1312.28 632.358 1311.32 631.548 1311.16 630.401C1311 629.165 1311.86 628.04 1313.09 627.883C1317.5 627.276 1321.9 626.556 1326.17 625.679C1327.41 625.432 1328.58 626.219 1328.82 627.433C1329.07 628.647 1328.28 629.839 1327.07 630.087C1322.71 630.964 1318.19 631.728 1313.7 632.335C1313.61 632.335 1313.5 632.335 1313.41 632.335L1313.38 632.358ZM1233.21 629.997C1233.07 629.997 1232.96 629.997 1232.82 629.974C1228.44 629.21 1223.97 628.355 1219.57 627.411C1218.35 627.141 1217.59 625.949 1217.83 624.735C1218.1 623.521 1219.3 622.734 1220.51 623.003C1224.87 623.925 1229.27 624.78 1233.61 625.544C1234.82 625.747 1235.65 626.916 1235.45 628.153C1235.27 629.255 1234.31 630.019 1233.25 630.019L1233.21 629.997ZM1343.97 625.814C1343 625.814 1342.1 625.185 1341.81 624.218C1341.45 623.026 1342.13 621.767 1343.32 621.407C1347.56 620.125 1351.79 618.709 1355.88 617.157C1357.05 616.707 1358.33 617.292 1358.78 618.461C1359.23 619.631 1358.64 620.912 1357.47 621.362C1353.29 622.958 1348.96 624.42 1344.62 625.724C1344.4 625.792 1344.19 625.814 1343.97 625.814V625.814ZM1202.62 623.273C1202.42 623.273 1202.24 623.251 1202.04 623.206C1197.77 622.081 1193.41 620.845 1189.05 619.518C1187.86 619.158 1187.18 617.899 1187.54 616.707C1187.9 615.516 1189.16 614.841 1190.35 615.201C1194.67 616.505 1198.98 617.719 1203.18 618.843C1204.37 619.158 1205.09 620.395 1204.78 621.587C1204.51 622.599 1203.61 623.251 1202.6 623.251L1202.62 623.273ZM1373.05 614.301C1372.22 614.301 1371.43 613.852 1371.02 613.065C1370.46 611.963 1370.91 610.613 1372.04 610.051C1375.97 608.095 1379.88 605.936 1383.65 603.688C1384.71 603.058 1386.1 603.395 1386.73 604.452C1387.36 605.509 1387.02 606.903 1385.97 607.533C1382.1 609.849 1378.08 612.053 1374.06 614.054C1373.74 614.211 1373.38 614.301 1373.05 614.301ZM1172.69 614.054C1172.44 614.054 1172.19 614.009 1171.95 613.919C1167.72 612.435 1163.48 610.883 1159.27 609.264C1158.1 608.815 1157.54 607.51 1157.99 606.364C1158.44 605.194 1159.75 604.632 1160.89 605.082C1165.03 606.678 1169.25 608.23 1173.43 609.692C1174.6 610.096 1175.23 611.378 1174.8 612.547C1174.49 613.469 1173.61 614.054 1172.69 614.054V614.054ZM1143.52 602.653C1143.23 602.653 1142.91 602.586 1142.62 602.473C1138.44 600.675 1134.28 598.808 1130.31 596.919C1129.18 596.38 1128.71 595.053 1129.23 593.929C1129.77 592.804 1131.09 592.332 1132.22 592.849C1136.15 594.693 1140.24 596.56 1144.4 598.336C1145.54 598.831 1146.06 600.157 1145.57 601.282C1145.21 602.136 1144.37 602.631 1143.5 602.631L1143.52 602.653ZM1399.68 597.886C1398.98 597.886 1398.31 597.571 1397.88 596.987C1397.14 595.997 1397.34 594.581 1398.35 593.839C1401.86 591.23 1405.32 588.442 1408.66 585.541C1409.61 584.732 1411.02 584.822 1411.83 585.766C1412.64 586.711 1412.55 588.127 1411.61 588.937C1408.17 591.905 1404.62 594.783 1401.02 597.437C1400.62 597.729 1400.15 597.886 1399.68 597.886V597.886ZM1423.5 577.581C1422.87 577.581 1422.24 577.311 1421.79 576.794C1420.98 575.85 1421.07 574.433 1422.01 573.624C1425.43 570.655 1428.91 567.732 1432.33 564.944C1433.29 564.157 1434.71 564.314 1435.5 565.259C1436.28 566.226 1436.13 567.642 1435.18 568.429C1431.79 571.195 1428.35 574.096 1424.96 577.019C1424.53 577.379 1424.01 577.559 1423.5 577.559V577.581ZM1447.88 557.951C1447.18 557.951 1446.51 557.636 1446.08 557.051C1445.34 556.062 1445.54 554.645 1446.55 553.903C1450.17 551.205 1453.86 548.552 1457.52 546.033C1458.53 545.336 1459.95 545.583 1460.64 546.595C1461.34 547.607 1461.09 549.024 1460.08 549.721C1456.48 552.217 1452.84 554.825 1449.25 557.501C1448.84 557.793 1448.37 557.951 1447.9 557.951H1447.88ZM1473.72 540.299C1472.98 540.299 1472.24 539.917 1471.81 539.242C1471.16 538.185 1471.47 536.791 1472.53 536.139C1476.39 533.733 1480.31 531.417 1484.15 529.236C1485.23 528.629 1486.6 529.011 1487.2 530.09C1487.81 531.17 1487.43 532.541 1486.35 533.148C1482.55 535.307 1478.71 537.601 1474.89 539.962C1474.53 540.187 1474.1 540.299 1473.7 540.299H1473.72ZM1501.05 525.053C1500.21 525.053 1499.43 524.604 1499.02 523.794C1498.46 522.67 1498.93 521.343 1500.04 520.781C1504.08 518.78 1508.19 516.846 1512.28 515.07C1513.43 514.575 1514.75 515.07 1515.25 516.216C1515.74 517.363 1515.25 518.69 1514.1 519.184C1510.08 520.961 1506.01 522.85 1502.04 524.829C1501.72 524.986 1501.38 525.053 1501.05 525.053V525.053ZM1529.79 512.708C1528.87 512.708 1528.01 512.146 1527.68 511.224C1527.25 510.055 1527.86 508.773 1529.02 508.346C1533.32 506.795 1537.63 505.333 1541.86 504.051C1543.05 503.669 1544.3 504.344 1544.66 505.535C1545.02 506.727 1544.37 507.986 1543.18 508.346C1539.02 509.628 1534.8 511.044 1530.57 512.574C1530.33 512.663 1530.06 512.708 1529.81 512.708H1529.79ZM1559.79 503.826C1558.75 503.826 1557.83 503.129 1557.61 502.072C1557.34 500.858 1558.1 499.666 1559.29 499.374C1563.74 498.362 1568.21 497.485 1572.6 496.766C1573.85 496.541 1574.98 497.395 1575.18 498.61C1575.38 499.824 1574.55 500.993 1573.34 501.196C1569.05 501.915 1564.66 502.77 1560.3 503.759C1560.15 503.804 1559.97 503.804 1559.81 503.804L1559.79 503.826ZM1590.71 499.104C1589.54 499.104 1588.55 498.205 1588.46 497.036C1588.37 495.799 1589.29 494.719 1590.53 494.63C1595.14 494.27 1599.7 494.112 1604.1 494.09C1605.34 494.09 1606.35 495.102 1606.35 496.338C1606.35 497.575 1605.34 498.587 1604.1 498.587C1599.81 498.587 1595.36 498.767 1590.87 499.104C1590.8 499.104 1590.75 499.104 1590.69 499.104H1590.71Z" fill="#C6DAF7"/>
<path d="M1115.21 589.14C1114.85 589.14 1114.49 589.05 1114.15 588.87C1110.26 586.801 1108.17 585.564 1108.17 585.564C1107.09 584.935 1106.76 583.563 1107.36 582.484C1107.99 581.404 1109.36 581.044 1110.44 581.674C1110.46 581.674 1112.51 582.888 1116.26 584.89C1117.36 585.474 1117.77 586.823 1117.18 587.925C1116.78 588.69 1115.99 589.117 1115.21 589.117V589.14Z" fill="#C6DAF7"/>
<path d="M1501.62 249.299C1500.89 250.297 1499.43 250.572 1498.44 249.843C1497.44 249.114 1497.18 247.755 1497.9 246.757C1500.58 243.09 1503.1 239.448 1505.44 235.816C1506.12 234.778 1507.5 234.482 1508.54 235.156C1509.58 235.831 1509.88 237.216 1509.2 238.254C1506.81 241.958 1504.23 245.673 1501.59 249.304L1501.62 249.299ZM1490.5 263.468C1490.5 263.468 1490.43 263.559 1490.41 263.595C1487.56 266.999 1484.55 270.396 1481.47 273.74C1480.63 274.659 1479.21 274.704 1478.29 273.866C1477.37 273.028 1477.31 271.622 1478.16 270.685C1481.2 267.395 1484.17 264.022 1486.96 260.69C1487.76 259.745 1489.17 259.605 1490.13 260.42C1491.04 261.195 1491.19 262.524 1490.5 263.468V263.468ZM1518.3 222.969C1517.65 223.858 1516.42 224.162 1515.4 223.613C1514.31 223.011 1513.91 221.659 1514.49 220.554C1516.6 216.638 1518.61 212.656 1520.43 208.672C1520.95 207.546 1522.29 207.048 1523.41 207.564C1524.54 208.08 1525.04 209.418 1524.52 210.544C1522.65 214.6 1520.62 218.682 1518.46 222.67C1518.4 222.743 1518.34 222.833 1518.29 222.906L1518.3 222.969ZM1469.13 286.347C1469.05 286.456 1468.98 286.547 1468.88 286.643C1465.7 289.714 1462.37 292.822 1459 295.842C1458.07 296.663 1456.65 296.578 1455.82 295.662C1454.98 294.747 1455.06 293.303 1455.99 292.482C1459.34 289.498 1462.61 286.431 1465.77 283.396C1466.65 282.535 1468.08 282.553 1468.96 283.445C1469.75 284.24 1469.79 285.471 1469.17 286.324L1469.13 286.347ZM1531.04 194.406C1530.47 195.186 1529.43 195.541 1528.48 195.207C1527.3 194.795 1526.68 193.508 1527.11 192.348C1528.58 188.161 1529.92 183.913 1531.08 179.695C1531.43 178.499 1532.63 177.796 1533.84 178.122C1535.05 178.448 1535.74 179.676 1535.42 180.885C1534.25 185.202 1532.87 189.567 1531.37 193.839C1531.29 194.061 1531.19 194.237 1531.06 194.419L1531.04 194.406ZM1445.67 307.09C1445.56 307.236 1445.43 307.386 1445.27 307.523C1441.81 310.314 1438.25 313.107 1434.64 315.841C1433.64 316.591 1432.23 316.394 1431.48 315.401C1430.73 314.408 1430.92 312.994 1431.92 312.244C1435.47 309.55 1439.02 306.776 1442.42 304.026C1443.38 303.249 1444.8 303.397 1445.58 304.354C1446.24 305.168 1446.23 306.278 1445.64 307.095L1445.67 307.09ZM1538.88 164.13C1538.39 164.801 1537.56 165.171 1536.69 165.034C1535.46 164.839 1534.64 163.68 1534.85 162.441C1535.58 158.111 1536.15 153.68 1536.55 149.305C1536.67 148.081 1537.76 147.154 1538.99 147.269C1540.21 147.384 1541.14 148.478 1541.03 149.702C1540.62 154.19 1540.03 158.738 1539.29 163.18C1539.23 163.527 1539.09 163.871 1538.89 164.143L1538.88 164.13ZM1420.58 325.836C1420.43 326.036 1420.25 326.209 1420.03 326.356C1416.34 328.894 1412.57 331.428 1408.8 333.85C1407.75 334.529 1406.36 334.214 1405.7 333.175C1405.02 332.123 1405.34 330.739 1406.38 330.078C1410.1 327.679 1413.83 325.199 1417.49 322.666C1418.51 321.96 1419.91 322.208 1420.61 323.242C1421.17 324.039 1421.12 325.092 1420.58 325.836V325.836ZM1394.18 342.679C1394 342.915 1393.76 343.129 1393.5 343.299C1389.6 345.597 1385.65 347.837 1381.76 349.973C1380.68 350.576 1379.31 350.162 1378.7 349.082C1378.11 347.983 1378.5 346.621 1379.59 346.031C1383.43 343.936 1387.35 341.701 1391.2 339.426C1392.28 338.792 1393.66 339.156 1394.27 340.218C1394.75 341.013 1394.66 341.976 1394.14 342.684L1394.18 342.679ZM1541.31 132.943C1540.9 133.505 1540.25 133.864 1539.53 133.865C1538.29 133.88 1537.26 132.882 1537.26 131.628C1537.22 127.259 1537.02 122.801 1536.64 118.405C1536.54 117.165 1537.45 116.075 1538.69 115.978C1539.93 115.881 1541.02 116.789 1541.12 118.028C1541.49 122.555 1541.7 127.107 1541.74 131.588C1541.74 132.087 1541.59 132.561 1541.31 132.943V132.943ZM1538.95 101.732C1538.58 102.24 1537.99 102.589 1537.31 102.648C1536.07 102.744 1534.98 101.837 1534.88 100.597C1534.49 96.0884 1534.19 91.5517 1533.95 87.1489C1533.88 85.9044 1534.84 84.8535 1536.07 84.7748C1537.31 84.7094 1538.37 85.6715 1538.44 86.8978C1538.68 91.2692 1539 95.7564 1539.36 100.221C1539.4 100.777 1539.24 101.301 1538.92 101.737L1538.95 101.732ZM1537.46 70.4648C1537.05 71.0276 1536.4 71.3867 1535.68 71.387C1534.44 71.4029 1533.42 70.4045 1533.4 69.1683C1533.37 64.637 1533.39 60.0959 1533.51 55.6707C1533.52 54.4297 1534.57 53.445 1535.8 53.4787C1537.03 53.5124 1538.03 54.5471 1537.99 55.7749C1537.89 60.1506 1537.85 64.6289 1537.9 69.1106C1537.89 69.6097 1537.74 70.0836 1537.46 70.4648V70.4648ZM1538.44 39.1843C1538 39.7834 1537.25 40.1572 1536.46 40.1044C1535.22 40.0079 1534.28 38.932 1534.37 37.6944C1534.71 33.1853 1535.15 28.6616 1535.65 24.2403C1535.79 23.0111 1536.91 22.129 1538.14 22.2751C1539.37 22.4212 1540.25 23.5383 1540.1 24.7675C1539.61 29.1078 1539.18 33.5821 1538.85 38.0416C1538.82 38.4646 1538.66 38.8757 1538.42 39.2025L1538.44 39.1843ZM1542.23 8.12393C1541.74 8.79559 1540.91 9.1658 1540.02 9.0154C1538.78 8.80652 1537.99 7.6434 1538.18 6.42255C1538.96 1.95723 1539.82 -2.50466 1540.79 -6.83744C1541.06 -8.05484 1542.24 -8.83429 1543.46 -8.55769C1544.68 -8.28109 1545.46 -7.09971 1545.18 -5.88231C1544.24 -1.61725 1543.38 2.76364 1542.63 7.19265C1542.57 7.53957 1542.43 7.85163 1542.23 8.12393V8.12393ZM1549.2 -22.3703C1548.65 -21.626 1547.7 -21.2677 1546.75 -21.5388C1545.56 -21.8831 1544.88 -23.1287 1545.22 -24.3245C1546.47 -28.6699 1547.85 -33.0036 1549.3 -37.2347C1549.71 -38.4089 1550.98 -39.0411 1552.15 -38.6291C1553.33 -38.217 1553.96 -36.9483 1553.55 -35.7741C1552.12 -31.6422 1550.76 -27.3763 1549.53 -23.0985C1549.46 -22.8458 1549.34 -22.6014 1549.19 -22.4017L1549.2 -22.3703ZM1559.7 -51.8401C1559.1 -51.005 1557.99 -50.6716 1557 -51.113C1555.86 -51.6109 1555.35 -52.9306 1555.82 -54.065C1557.61 -58.2376 1559.54 -62.367 1561.55 -66.3491C1562.12 -67.4668 1563.46 -67.9022 1564.56 -67.3498C1565.68 -66.7842 1566.12 -65.4366 1565.57 -64.337C1563.6 -60.4275 1561.71 -56.384 1559.95 -52.2973C1559.9 -52.1437 1559.79 -51.9986 1559.7 -51.8715L1559.7 -51.8401ZM1574.12 -79.602C1573.43 -78.6581 1572.12 -78.3895 1571.12 -79.0061C1570.07 -79.6625 1569.74 -81.0429 1570.4 -82.0944C1572.84 -86.0145 1575.38 -89.8056 1577.98 -93.3636C1578.71 -94.362 1580.12 -94.5825 1581.12 -93.8535C1582.12 -93.1245 1582.34 -91.7112 1581.61 -90.7128C1579.08 -87.2455 1576.6 -83.5453 1574.23 -79.7159C1574.19 -79.6614 1574.16 -79.6251 1574.12 -79.5706L1574.12 -79.602Z" fill="#C6DAF7"/>
<path d="M1366.57 357.586C1366.36 357.877 1366.07 358.114 1365.73 358.28C1361.77 360.202 1359.54 361.161 1359.54 361.161C1358.39 361.661 1357.07 361.143 1356.57 359.999C1356.07 358.854 1356.6 357.548 1357.73 357.034C1357.74 357.016 1359.93 356.08 1363.76 354.228C1364.88 353.683 1366.23 354.165 1366.75 355.273C1367.13 356.051 1367.01 356.938 1366.55 357.573L1366.57 357.586Z" fill="#C6DAF7"/>
<path d="M466.199 261.471C466.199 261.471 465.997 261.471 465.907 261.471C463.615 261.156 461.323 260.796 459.121 260.346C457.907 260.099 457.098 258.93 457.345 257.715C457.592 256.501 458.761 255.692 459.974 255.939C462.109 256.366 464.289 256.726 466.491 257.018C467.727 257.176 468.581 258.323 468.424 259.537C468.267 260.661 467.3 261.493 466.199 261.493V261.471Z" fill="#C6DAF7"/>
<path d="M442.469 255.511C442.199 255.511 441.93 255.466 441.66 255.354C437.368 253.712 433.211 251.778 429.301 249.597C428.222 248.99 427.817 247.618 428.424 246.539C429.031 245.46 430.402 245.055 431.48 245.662C435.211 247.731 439.166 249.575 443.256 251.149C444.424 251.598 444.986 252.903 444.559 254.049C444.222 254.949 443.368 255.488 442.469 255.488V255.511ZM415.84 239.771C415.323 239.771 414.806 239.591 414.379 239.231C410.874 236.218 407.66 232.912 404.784 229.449C403.997 228.482 404.132 227.066 405.076 226.279C406.042 225.492 407.458 225.627 408.245 226.571C410.941 229.854 413.997 232.957 417.301 235.813C418.244 236.622 418.334 238.039 417.525 238.984C417.076 239.501 416.447 239.771 415.818 239.771H415.84ZM396.986 215.328C396.155 215.328 395.346 214.856 394.964 214.046C392.964 209.841 391.436 205.457 390.38 201.049C390.087 199.835 390.829 198.621 392.042 198.328C393.256 198.059 394.469 198.778 394.761 199.992C395.75 204.107 397.188 208.177 399.054 212.112C399.593 213.237 399.099 214.586 397.975 215.103C397.66 215.261 397.346 215.328 397.009 215.328H396.986ZM391.031 185.129C391.031 185.129 390.941 185.129 390.874 185.129C389.638 185.039 388.694 183.982 388.784 182.745C389.099 178.136 389.93 173.571 391.301 169.164C391.66 167.972 392.919 167.32 394.11 167.68C395.301 168.039 395.952 169.299 395.593 170.49C394.335 174.56 393.548 178.788 393.278 183.038C393.188 184.23 392.2 185.129 391.031 185.129ZM401.121 156.122C400.694 156.122 400.245 155.987 399.863 155.74C398.829 155.042 398.559 153.648 399.256 152.614C401.75 148.926 404.694 145.351 407.997 142.023C408.874 141.146 410.289 141.146 411.166 142.023C412.042 142.9 412.042 144.316 411.166 145.193C408.065 148.319 405.301 151.647 402.964 155.11C402.537 155.762 401.818 156.099 401.099 156.099L401.121 156.122ZM423.368 134.715C422.626 134.715 421.907 134.355 421.48 133.703C420.806 132.669 421.098 131.274 422.132 130.6C425.795 128.194 429.773 125.945 433.952 123.877C435.076 123.337 436.402 123.787 436.963 124.911C437.503 126.035 437.053 127.362 435.93 127.924C431.907 129.903 428.11 132.061 424.604 134.355C424.222 134.602 423.795 134.715 423.368 134.715V134.715ZM451.368 121.426C450.424 121.426 449.548 120.841 449.233 119.896C448.829 118.727 449.48 117.445 450.649 117.041C454.784 115.647 459.143 114.387 463.615 113.263C464.806 112.948 466.042 113.69 466.334 114.905C466.626 116.119 465.907 117.333 464.694 117.625C460.334 118.705 456.087 119.941 452.087 121.291C451.84 121.381 451.615 121.403 451.368 121.403V121.426ZM730.018 117.783C728.782 117.783 727.771 116.771 727.771 115.534C727.771 114.297 728.782 113.285 730.018 113.285C734.58 113.285 739.006 113.218 743.299 113.128C744.535 113.196 745.568 114.095 745.591 115.332C745.613 116.568 744.624 117.603 743.388 117.625C739.074 117.715 734.602 117.76 730.018 117.783ZM712.243 117.648C707.861 117.58 703.434 117.49 698.872 117.378C697.636 117.356 696.647 116.321 696.692 115.084C696.715 113.848 697.681 112.858 698.984 112.903C703.524 113.016 707.973 113.106 712.288 113.173C713.524 113.173 714.512 114.207 714.49 115.467C714.49 116.703 713.479 117.67 712.243 117.67V117.648ZM761.074 116.973C759.883 116.973 758.894 116.051 758.827 114.86C758.759 113.623 759.703 112.566 760.939 112.498C765.546 112.229 769.995 111.914 774.152 111.509C775.388 111.397 776.489 112.296 776.602 113.533C776.714 114.77 775.815 115.871 774.579 115.984C770.377 116.389 765.883 116.703 761.209 116.973C761.164 116.973 761.119 116.973 761.074 116.973V116.973ZM681.142 116.861C676.715 116.703 672.288 116.546 667.749 116.389C666.513 116.344 665.546 115.309 665.591 114.05C665.636 112.813 666.715 111.824 667.928 111.891C672.468 112.071 676.895 112.229 681.232 112.364C682.468 112.409 683.434 113.443 683.411 114.68C683.366 115.894 682.378 116.861 681.164 116.861H681.142ZM650.063 115.692L636.648 115.129C635.412 115.084 634.445 114.028 634.49 112.791C634.535 111.554 635.614 110.61 636.827 110.632L650.131 111.194C651.367 111.239 652.333 112.296 652.288 113.533C652.243 114.747 651.254 115.692 650.041 115.692H650.063ZM618.985 114.387L605.569 113.825C604.333 113.78 603.367 112.723 603.412 111.487C603.457 110.25 604.491 109.26 605.749 109.328L619.075 109.89C620.311 109.935 621.277 110.992 621.232 112.229C621.187 113.443 620.176 114.387 618.985 114.387ZM481.503 114.207C480.424 114.207 479.458 113.42 479.278 112.296C479.076 111.059 479.929 109.913 481.143 109.733C485.435 109.058 489.929 108.473 494.469 108.024C495.66 107.889 496.806 108.788 496.941 110.025C497.075 111.262 496.154 112.364 494.918 112.498C490.446 112.948 486.042 113.51 481.84 114.185C481.727 114.185 481.615 114.207 481.48 114.207H481.503ZM791.95 113.735C790.871 113.735 789.928 112.948 789.725 111.846C789.523 110.61 790.354 109.463 791.568 109.26C796.085 108.518 800.422 107.619 804.444 106.63C805.658 106.337 806.871 107.079 807.163 108.271C807.456 109.485 806.714 110.7 805.523 110.992C801.388 112.004 796.939 112.903 792.31 113.69C792.175 113.69 792.062 113.713 791.95 113.713V113.735ZM587.906 113.106C583.457 112.926 579.008 112.746 574.513 112.588C573.277 112.543 572.311 111.487 572.356 110.25C572.401 109.013 573.39 108.024 574.693 108.091C579.21 108.271 583.637 108.428 588.019 108.608C589.255 108.653 590.221 109.71 590.176 110.947C590.131 112.161 589.142 113.106 587.929 113.106H587.906ZM556.828 111.936C552.378 111.779 547.929 111.622 543.435 111.487C542.199 111.442 541.232 110.407 541.255 109.171C541.3 107.934 542.379 106.944 543.57 106.989C548.064 107.147 552.513 107.282 556.895 107.439C558.131 107.484 559.098 108.518 559.053 109.755C559.008 110.969 558.019 111.914 556.805 111.914L556.828 111.936ZM512.424 111.307C511.21 111.307 510.221 110.362 510.176 109.148C510.132 107.911 511.098 106.854 512.334 106.809C516.401 106.652 520.626 106.585 524.873 106.585H525.749C526.985 106.585 527.997 107.596 527.997 108.833C527.997 110.07 526.985 111.082 525.749 111.082H524.896C520.693 111.082 516.536 111.149 512.514 111.307C512.491 111.307 512.446 111.307 512.424 111.307V111.307ZM821.927 105.753C821.028 105.753 820.197 105.213 819.837 104.336C819.388 103.189 819.927 101.885 821.096 101.413C825.253 99.7488 829.186 97.8599 832.826 95.7912C833.905 95.1841 835.276 95.5663 835.882 96.6232C836.489 97.7025 836.129 99.0742 835.051 99.6813C831.231 101.84 827.096 103.841 822.759 105.573C822.489 105.685 822.197 105.73 821.927 105.73V105.753Z" fill="#C6DAF7"/>
<path d="M848.624 89.473C848.017 89.473 847.388 89.2257 846.938 88.731C846.107 87.8091 846.197 86.3924 847.118 85.5604C848.736 84.1213 850.309 82.5698 851.815 80.9957C852.669 80.0963 854.107 80.0738 854.983 80.9058C855.882 81.7603 855.927 83.1769 855.073 84.0763C853.478 85.7403 851.815 87.3593 850.107 88.8884C849.68 89.2707 849.141 89.4505 848.601 89.4505L848.624 89.473Z" fill="#C6DAF7"/>
<path d="M617.816 714.432C615.547 714.364 613.322 714.342 611.075 714.342C609.839 714.342 608.828 713.33 608.828 712.093C608.828 710.857 609.839 709.845 611.075 709.845C613.367 709.845 615.637 709.867 617.884 709.935C619.12 709.957 620.108 710.992 620.064 712.251C620.041 713.465 619.03 714.432 617.816 714.432Z" fill="#C6DAF7"/>
<path d="M614.917 792.347C613.704 792.347 612.693 791.358 612.67 790.121C612.67 788.884 613.636 787.85 614.872 787.85C619.322 787.782 623.794 787.602 628.153 787.31C629.367 787.243 630.468 788.165 630.535 789.401C630.625 790.638 629.681 791.717 628.445 791.807C624.018 792.1 619.457 792.28 614.94 792.37H614.895L614.917 792.347ZM597.052 792.01C597.052 792.01 596.962 792.01 596.917 792.01C592.356 791.762 587.816 791.38 583.434 790.908C582.198 790.773 581.3 789.671 581.457 788.434C581.592 787.198 582.693 786.298 583.929 786.456C588.243 786.928 592.693 787.288 597.165 787.535C598.401 787.603 599.344 788.659 599.277 789.896C599.21 791.088 598.221 792.032 597.03 792.032L597.052 792.01ZM646.086 789.941C644.985 789.941 644.018 789.132 643.861 788.007C643.681 786.77 644.535 785.646 645.771 785.466C650.243 784.814 654.625 784.027 658.827 783.128C660.041 782.858 661.232 783.645 661.501 784.859C661.771 786.073 660.984 787.265 659.771 787.535C655.479 788.457 651.007 789.244 646.423 789.919C646.31 789.919 646.198 789.941 646.086 789.941V789.941ZM566.041 788.232C565.906 788.232 565.749 788.232 565.614 788.187C561.03 787.288 556.581 786.253 552.401 785.084C551.21 784.747 550.513 783.51 550.828 782.318C551.165 781.126 552.401 780.429 553.592 780.744C557.659 781.868 561.996 782.903 566.468 783.78C567.682 784.027 568.491 785.196 568.243 786.411C568.041 787.49 567.097 788.232 566.041 788.232V788.232ZM676.535 782.903C675.591 782.903 674.715 782.318 674.4 781.374C673.996 780.204 674.647 778.923 675.816 778.518C680.22 777.034 684.333 775.392 687.996 773.638C689.119 773.099 690.467 773.571 690.984 774.695C691.524 775.82 691.052 777.169 689.928 777.686C686.085 779.53 681.816 781.239 677.232 782.79C676.984 782.88 676.76 782.903 676.512 782.903H676.535ZM536.131 779.26C535.839 779.26 535.525 779.193 535.232 779.08C530.648 777.079 526.558 774.875 523.098 772.559C522.064 771.862 521.794 770.468 522.491 769.434C523.188 768.399 524.581 768.129 525.615 768.826C528.873 771.008 532.716 773.076 537.053 774.965C538.199 775.46 538.716 776.787 538.221 777.933C537.862 778.788 537.03 779.283 536.154 779.283L536.131 779.26ZM703.861 768.152C703.276 768.152 702.67 767.927 702.22 767.455C701.366 766.555 701.411 765.139 702.31 764.284C705.748 761.024 707.883 757.651 708.692 754.233C708.984 753.019 710.198 752.277 711.389 752.569C712.602 752.861 713.344 754.076 713.052 755.267C712.04 759.54 709.456 763.677 705.389 767.545C704.962 767.949 704.4 768.152 703.838 768.152H703.861ZM705.861 740.629C705.231 740.629 704.625 740.381 704.175 739.864C701.726 737.098 698.4 734.445 694.288 731.949C693.231 731.297 692.894 729.925 693.524 728.868C694.175 727.812 695.546 727.474 696.602 728.104C701.119 730.825 704.804 733.793 707.546 736.896C708.377 737.818 708.287 739.257 707.344 740.067C706.917 740.449 706.377 740.629 705.861 740.629V740.629ZM679.254 724.753C679.007 724.753 678.737 724.708 678.49 724.619C674.58 723.202 670.333 721.898 665.883 720.751C664.692 720.436 663.951 719.222 664.265 718.008C664.58 716.793 665.793 716.074 667.007 716.389C671.591 717.58 675.973 718.907 680.018 720.391C681.187 720.818 681.793 722.1 681.366 723.269C681.029 724.191 680.175 724.753 679.254 724.753V724.753ZM648.94 717.221C648.827 717.221 648.692 717.221 648.58 717.198C644.333 716.524 639.906 715.961 635.412 715.512C634.176 715.399 633.277 714.297 633.389 713.061C633.501 711.824 634.58 710.924 635.839 711.037C640.4 711.487 644.917 712.071 649.277 712.746C650.513 712.948 651.344 714.095 651.142 715.309C650.962 716.411 650.018 717.198 648.917 717.198L648.94 717.221Z" fill="#C6DAF7"/>
<path d="M512.244 759.922C511.368 759.922 510.559 759.427 510.177 758.572C509.12 756.144 508.581 753.648 508.581 751.129C508.581 749.893 509.592 748.881 510.828 748.881C512.064 748.881 513.075 749.893 513.075 751.129C513.075 753.018 513.48 754.907 514.289 756.773C514.783 757.92 514.266 759.247 513.12 759.742C512.828 759.877 512.514 759.922 512.221 759.922H512.244Z" fill="#C6DAF7"/>
<path d="M979.32 828.999C977.05 828.999 974.78 828.999 972.533 828.954C971.297 828.954 970.308 827.92 970.331 826.661C970.331 825.424 971.387 824.524 972.623 824.457C974.848 824.502 977.072 824.502 979.32 824.502C980.556 824.502 981.567 825.514 981.567 826.751C981.567 827.987 980.556 828.999 979.32 828.999Z" fill="#C6DAF7"/>
<path d="M955.544 828.325C955.544 828.325 955.454 828.325 955.41 828.325C951.095 828.077 946.78 827.762 942.578 827.358C941.342 827.245 940.421 826.143 940.533 824.907C940.646 823.67 941.769 822.748 942.983 822.86C947.14 823.243 951.41 823.558 955.679 823.805C956.915 823.872 957.859 824.929 957.792 826.188C957.724 827.38 956.735 828.302 955.544 828.302V828.325ZM925.837 825.401C925.837 825.401 925.634 825.401 925.522 825.401C921.23 824.794 916.96 824.097 912.803 823.333C911.59 823.108 910.781 821.939 911.005 820.724C911.23 819.51 912.399 818.678 913.612 818.925C917.702 819.667 921.927 820.364 926.151 820.949C927.387 821.129 928.241 822.253 928.061 823.49C927.904 824.614 926.938 825.424 925.837 825.424V825.401ZM896.533 819.735C896.354 819.735 896.151 819.735 895.972 819.667C891.612 818.566 887.432 817.351 883.522 816.092C882.354 815.71 881.702 814.428 882.084 813.259C882.466 812.09 883.725 811.437 884.916 811.82C888.713 813.056 892.803 814.226 897.073 815.328C898.286 815.642 899.005 816.857 898.691 818.048C898.444 819.06 897.522 819.735 896.511 819.735H896.533ZM868.331 809.998C868.017 809.998 867.68 809.931 867.365 809.773C863.028 807.727 859.185 805.546 855.927 803.275C854.916 802.555 854.646 801.161 855.365 800.149C856.084 799.115 857.478 798.868 858.489 799.587C861.545 801.701 865.185 803.77 869.275 805.703C870.399 806.243 870.871 807.57 870.354 808.694C869.972 809.504 869.163 809.976 868.309 809.976L868.331 809.998ZM845.86 791.267C844.983 791.267 844.174 790.773 843.792 789.918C842.781 787.58 842.264 785.174 842.264 782.767C842.264 780.406 842.759 778.045 843.747 775.752C844.242 774.605 845.568 774.088 846.691 774.56C847.837 775.055 848.354 776.381 847.882 777.506C847.141 779.237 846.759 781.014 846.759 782.745C846.759 784.521 847.141 786.32 847.927 788.097C848.421 789.244 847.905 790.57 846.759 791.065C846.466 791.2 846.152 791.245 845.86 791.245V791.267ZM857.118 766.42C856.399 766.42 855.702 766.083 855.275 765.453C854.556 764.441 854.803 763.025 855.837 762.328C859.073 760.056 862.916 757.875 867.275 755.807C868.399 755.267 869.725 755.762 870.264 756.863C870.803 757.988 870.309 759.337 869.208 759.854C865.095 761.81 861.455 763.879 858.421 765.993C858.039 766.263 857.59 766.398 857.14 766.398L857.118 766.42ZM884.107 753.873C883.163 753.873 882.286 753.266 881.972 752.321C881.59 751.129 882.241 749.87 883.41 749.488C887.298 748.229 891.477 747.014 895.837 745.89C897.05 745.575 898.264 746.317 898.578 747.509C898.893 748.723 898.151 749.938 896.96 750.252C892.668 751.354 888.578 752.524 884.803 753.76C884.578 753.828 884.331 753.873 884.107 753.873V753.873ZM913.073 746.7C912.017 746.7 911.073 745.935 910.87 744.856C910.646 743.641 911.455 742.45 912.668 742.247C916.781 741.483 921.05 740.786 925.387 740.179C926.623 739.999 927.747 740.853 927.927 742.09C928.106 743.327 927.252 744.451 926.016 744.631C921.724 745.238 917.5 745.935 913.477 746.677C913.342 746.7 913.208 746.722 913.073 746.722V746.7ZM942.668 742.675C941.522 742.675 940.533 741.798 940.421 740.628C940.308 739.392 941.207 738.29 942.443 738.177C946.668 737.795 950.983 737.458 955.275 737.21C956.578 737.143 957.589 738.087 957.657 739.324C957.724 740.561 956.78 741.618 955.544 741.708C951.297 741.955 947.028 742.27 942.848 742.652C942.78 742.652 942.713 742.652 942.646 742.652L942.668 742.675Z" fill="#C6DAF7"/>
<path d="M972.578 741.078C971.364 741.078 970.353 740.089 970.331 738.875C970.331 737.638 971.297 736.604 972.533 736.581C974.78 736.536 977.027 736.536 979.319 736.536C980.555 736.536 981.566 737.548 981.566 738.785C981.566 740.021 980.555 741.033 979.319 741.033C977.072 741.033 974.825 741.033 972.623 741.078H972.578Z" fill="#C6DAF7"/>
<path d="M1214.87 422.223C1213.63 422.223 1212.62 421.234 1212.62 419.997C1212.62 418.76 1213.61 417.749 1214.85 417.726C1219.39 417.681 1223.95 417.524 1228.4 417.231C1229.66 417.164 1230.71 418.086 1230.78 419.323C1230.87 420.559 1229.92 421.639 1228.69 421.706C1224.15 421.998 1219.52 422.156 1214.89 422.201L1214.87 422.223ZM1196.64 421.729C1196.64 421.729 1196.55 421.729 1196.51 421.729C1191.88 421.436 1187.25 421.009 1182.76 420.447C1181.52 420.29 1180.64 419.165 1180.8 417.951C1180.96 416.714 1182.1 415.815 1183.3 415.995C1187.7 416.534 1192.24 416.962 1196.78 417.254C1198.01 417.344 1198.96 418.401 1198.87 419.637C1198.8 420.829 1197.81 421.751 1196.62 421.751L1196.64 421.729ZM1246.69 419.84C1245.59 419.84 1244.62 419.03 1244.46 417.906C1244.28 416.669 1245.14 415.545 1246.37 415.365C1250.96 414.69 1255.43 413.881 1259.68 412.959C1260.89 412.689 1262.08 413.476 1262.35 414.668C1262.62 415.882 1261.83 417.074 1260.64 417.344C1256.28 418.288 1251.7 419.12 1247.03 419.795C1246.91 419.795 1246.8 419.817 1246.71 419.817L1246.69 419.84ZM1165.05 417.434C1164.89 417.434 1164.73 417.434 1164.58 417.389C1159.9 416.377 1155.39 415.185 1151.16 413.881C1149.97 413.521 1149.32 412.262 1149.68 411.07C1150.04 409.878 1151.3 409.226 1152.49 409.586C1156.6 410.845 1160.98 411.992 1165.54 412.982C1166.76 413.251 1167.52 414.443 1167.27 415.657C1167.05 416.714 1166.1 417.434 1165.07 417.434H1165.05ZM1277.72 412.509C1276.8 412.509 1275.92 411.925 1275.61 411.003C1275.21 409.833 1275.81 408.552 1276.98 408.147C1281.5 406.573 1285.65 404.819 1289.3 402.953C1290.4 402.391 1291.74 402.818 1292.33 403.92C1292.91 405.021 1292.46 406.371 1291.36 406.955C1287.52 408.912 1283.21 410.755 1278.49 412.397C1278.24 412.487 1277.99 412.532 1277.74 412.532L1277.72 412.509ZM1134.87 407.248C1134.53 407.248 1134.17 407.158 1133.86 407C1129.16 404.617 1125.16 401.986 1121.99 399.242C1121.05 398.433 1120.96 397.016 1121.77 396.072C1122.58 395.127 1123.99 395.037 1124.94 395.847C1127.86 398.365 1131.54 400.771 1135.9 403.02C1137 403.582 1137.45 404.931 1136.89 406.033C1136.49 406.82 1135.7 407.27 1134.89 407.27L1134.87 407.248ZM1304.96 396.499C1304.44 396.499 1303.9 396.319 1303.47 395.937C1302.53 395.127 1302.44 393.688 1303.27 392.766C1306.35 389.236 1307.92 385.616 1307.92 381.973C1307.9 380.736 1308.87 379.612 1310.1 379.567C1311.32 379.567 1312.37 380.421 1312.42 381.658V381.951C1312.42 386.718 1310.49 391.35 1306.64 395.712C1306.19 396.229 1305.59 396.477 1304.96 396.477V396.499ZM1114.91 384.289C1113.68 384.289 1112.67 383.345 1112.67 382.108C1112.67 377.251 1114.58 372.664 1118.35 368.324C1119.16 367.379 1120.6 367.289 1121.52 368.099C1122.46 368.909 1122.55 370.325 1121.75 371.27C1118.71 374.755 1117.16 378.375 1117.16 381.973C1117.16 383.21 1116.15 384.289 1114.91 384.289ZM1301.54 368.594C1301.03 368.594 1300.51 368.414 1300.08 368.054C1297.16 365.536 1293.45 363.13 1289.09 360.903C1287.99 360.341 1287.54 358.992 1288.1 357.89C1288.67 356.788 1290.01 356.339 1291.12 356.901C1295.81 359.284 1299.81 361.893 1303 364.636C1303.95 365.446 1304.06 366.862 1303.25 367.807C1302.8 368.324 1302.17 368.594 1301.54 368.594V368.594ZM1134.67 361.331C1133.86 361.331 1133.07 360.881 1132.67 360.116C1132.11 359.015 1132.53 357.665 1133.63 357.081C1137.48 355.102 1141.79 353.281 1146.51 351.617C1147.68 351.212 1148.96 351.819 1149.36 352.988C1149.77 354.158 1149.16 355.439 1147.99 355.844C1143.48 357.418 1139.34 359.172 1135.68 361.061C1135.34 361.218 1135 361.308 1134.64 361.308L1134.67 361.331ZM1273.16 354.45C1272.94 354.45 1272.71 354.427 1272.51 354.36C1268.42 353.101 1264.01 351.954 1259.45 350.964C1258.24 350.695 1257.48 349.503 1257.72 348.289C1257.99 347.074 1259.18 346.31 1260.4 346.557C1265.09 347.569 1269.61 348.738 1273.81 350.043C1275 350.402 1275.65 351.662 1275.3 352.853C1275 353.82 1274.1 354.45 1273.14 354.45H1273.16ZM1164.8 351.077C1163.77 351.077 1162.85 350.357 1162.6 349.301C1162.33 348.086 1163.09 346.894 1164.31 346.625C1168.69 345.68 1173.25 344.848 1177.92 344.151C1179.16 343.971 1180.28 344.826 1180.46 346.062C1180.64 347.299 1179.79 348.424 1178.58 348.603C1174.01 349.278 1169.54 350.088 1165.27 351.009C1165.12 351.054 1164.96 351.054 1164.8 351.054V351.077ZM1241.92 347.974C1241.92 347.974 1241.74 347.974 1241.65 347.974C1237.27 347.434 1232.73 347.007 1228.17 346.737C1226.94 346.67 1225.99 345.59 1226.08 344.354C1226.15 343.117 1227.25 342.172 1228.46 342.24C1233.12 342.532 1237.74 342.959 1242.22 343.522C1243.45 343.679 1244.33 344.803 1244.17 346.018C1244.04 347.164 1243.07 347.996 1241.95 347.996L1241.92 347.974ZM1196.4 346.737C1195.23 346.737 1194.24 345.815 1194.15 344.623C1194.06 343.387 1195 342.307 1196.24 342.24C1200.78 341.948 1205.43 341.768 1210.04 341.723C1211.3 341.723 1212.28 342.712 1212.31 343.949C1212.31 345.186 1211.32 346.197 1210.08 346.22C1205.54 346.265 1201 346.422 1196.53 346.715C1196.49 346.715 1196.44 346.715 1196.37 346.715L1196.4 346.737Z" fill="#C6DAF7"/>
<path d="M1631.56 501.96C1629.29 501.915 1627.07 501.893 1624.82 501.893C1623.58 501.893 1622.57 500.881 1622.57 499.644C1622.57 498.407 1623.58 497.396 1624.82 497.396C1627.09 497.396 1629.36 497.418 1631.61 497.463C1632.84 497.485 1633.83 498.52 1633.81 499.757C1633.79 500.971 1632.78 501.96 1631.56 501.96Z" fill="#C6DAF7"/>
<path d="M1649.23 576.952C1648.06 576.952 1647.07 576.052 1646.98 574.883C1646.89 573.646 1647.81 572.567 1649.05 572.455C1653.45 572.117 1657.81 571.668 1662.06 571.128C1663.29 570.971 1664.42 571.848 1664.57 573.084C1664.73 574.321 1663.85 575.445 1662.62 575.603C1658.3 576.142 1653.85 576.592 1649.41 576.952C1649.34 576.952 1649.29 576.952 1649.23 576.952V576.952ZM1679.67 572.814C1678.62 572.814 1677.7 572.072 1677.47 571.016C1677.23 569.801 1678.01 568.61 1679.25 568.362C1683.65 567.485 1687.92 566.496 1691.94 565.394C1693.14 565.079 1694.37 565.776 1694.71 566.991C1695.02 568.182 1694.33 569.419 1693.11 569.756C1689 570.858 1684.64 571.893 1680.12 572.792C1679.97 572.814 1679.83 572.837 1679.67 572.837V572.814ZM1709.16 564.247C1708.28 564.247 1707.45 563.73 1707.09 562.853C1706.62 561.706 1707.16 560.38 1708.3 559.907C1712.64 558.108 1716.48 556.175 1719.74 554.151C1720.8 553.499 1722.19 553.814 1722.84 554.87C1723.49 555.927 1723.18 557.321 1722.12 557.974C1718.66 560.132 1714.6 562.178 1710.03 564.045C1709.76 564.157 1709.47 564.225 1709.18 564.225L1709.16 564.247ZM1733.25 546.146C1732.93 546.146 1732.6 546.078 1732.28 545.921C1731.16 545.381 1730.69 544.032 1731.23 542.93C1732.08 541.176 1732.51 539.377 1732.51 537.623C1732.51 535.87 1732.06 534.026 1731.2 532.227C1730.66 531.103 1731.11 529.753 1732.24 529.214C1733.36 528.674 1734.69 529.124 1735.25 530.248C1736.42 532.654 1737.02 535.128 1737.02 537.623C1737.02 540.119 1736.44 542.503 1735.31 544.864C1734.93 545.674 1734.12 546.146 1733.29 546.146H1733.25ZM1720.82 521.343C1720.42 521.343 1720.01 521.231 1719.65 521.006C1716.39 518.982 1712.53 517.071 1708.21 515.272C1707.07 514.8 1706.53 513.473 1707 512.326C1707.47 511.18 1708.78 510.64 1709.94 511.112C1714.51 512.979 1718.57 515.025 1722.03 517.184C1723.09 517.836 1723.43 519.23 1722.78 520.287C1722.35 520.984 1721.61 521.343 1720.87 521.343H1720.82ZM1692.39 509.898C1692.19 509.898 1692.01 509.875 1691.81 509.831C1687.79 508.751 1683.52 507.762 1679.11 506.885C1677.9 506.637 1677.11 505.468 1677.34 504.231C1677.58 503.017 1678.75 502.208 1679.99 502.455C1684.48 503.354 1688.87 504.366 1692.98 505.468C1694.17 505.783 1694.89 507.02 1694.57 508.234C1694.3 509.246 1693.4 509.898 1692.42 509.898H1692.39ZM1662.21 504.119C1662.21 504.119 1662.03 504.119 1661.94 504.119C1657.7 503.579 1653.34 503.152 1648.93 502.815C1647.7 502.725 1646.78 501.646 1646.87 500.409C1646.96 499.172 1648.03 498.25 1649.27 498.34C1653.74 498.677 1658.17 499.127 1662.48 499.667C1663.72 499.824 1664.6 500.948 1664.44 502.185C1664.3 503.332 1663.34 504.164 1662.21 504.164V504.119Z" fill="#C6DAF7"/>
<path d="M1624.82 577.896C1623.58 577.896 1622.57 576.884 1622.57 575.647C1622.57 574.41 1623.58 573.399 1624.82 573.399C1627.07 573.399 1629.29 573.376 1631.52 573.331C1632.87 573.331 1633.79 574.298 1633.81 575.535C1633.83 576.771 1632.84 577.806 1631.61 577.828C1629.36 577.873 1627.09 577.896 1624.82 577.896V577.896Z" fill="#C6DAF7"/>
<path d="M1115.68 124.754C1114.44 124.754 1113.43 123.764 1113.43 122.528C1113.43 121.291 1114.42 120.279 1115.66 120.256C1120.19 120.211 1124.73 120.054 1129.21 119.762C1130.49 119.672 1131.52 120.616 1131.59 121.853C1131.68 123.09 1130.73 124.169 1129.5 124.237C1124.96 124.529 1120.31 124.686 1115.7 124.731L1115.68 124.754ZM1097.45 124.259C1097.45 124.259 1097.36 124.259 1097.32 124.259C1092.67 123.967 1088.04 123.539 1083.57 122.977C1082.33 122.82 1081.45 121.696 1081.61 120.459C1081.77 119.222 1082.91 118.368 1084.11 118.503C1088.49 119.042 1093.03 119.469 1097.59 119.762C1098.82 119.852 1099.77 120.909 1099.68 122.145C1099.61 123.337 1098.62 124.259 1097.43 124.259H1097.45ZM1147.5 122.37C1146.4 122.37 1145.43 121.561 1145.27 120.436C1145.09 119.2 1145.95 118.075 1147.18 117.895C1151.75 117.221 1156.24 116.434 1160.49 115.489C1161.7 115.22 1162.89 116.007 1163.16 117.198C1163.43 118.413 1162.67 119.604 1161.45 119.874C1157.09 120.819 1152.51 121.651 1147.84 122.325C1147.72 122.325 1147.61 122.348 1147.52 122.348L1147.5 122.37ZM1065.86 119.964C1065.7 119.964 1065.54 119.964 1065.39 119.919C1060.69 118.907 1056.17 117.716 1051.97 116.411C1050.78 116.052 1050.13 114.792 1050.49 113.601C1050.85 112.409 1052.11 111.757 1053.3 112.116C1057.39 113.376 1061.79 114.522 1066.35 115.512C1067.57 115.782 1068.33 116.973 1068.08 118.188C1067.86 119.245 1066.91 119.964 1065.88 119.964H1065.86ZM1178.53 115.04C1177.61 115.04 1176.73 114.455 1176.42 113.533C1176.01 112.364 1176.62 111.082 1177.79 110.677C1182.31 109.103 1186.44 107.349 1190.1 105.483C1191.21 104.921 1192.55 105.348 1193.14 106.45C1193.7 107.552 1193.27 108.901 1192.15 109.486C1188.31 111.442 1183.99 113.286 1179.27 114.927C1179.03 115.017 1178.78 115.062 1178.53 115.062V115.04ZM1035.68 109.778C1035.34 109.778 1034.98 109.688 1034.67 109.531C1029.97 107.147 1025.97 104.516 1022.8 101.773C1021.86 100.963 1021.77 99.5466 1022.58 98.6022C1023.39 97.6578 1024.82 97.5678 1025.75 98.3773C1028.67 100.896 1032.35 103.302 1036.71 105.55C1037.81 106.113 1038.26 107.462 1037.7 108.564C1037.3 109.351 1036.51 109.8 1035.7 109.8L1035.68 109.778ZM1205.77 99.0294C1205.25 99.0294 1204.71 98.8496 1204.28 98.4673C1203.36 97.6578 1203.25 96.2187 1204.08 95.2967C1207.16 91.7664 1208.73 88.1461 1208.73 84.5033C1208.73 83.2666 1209.72 82.1423 1210.96 82.1423C1212.17 82.1423 1213.21 82.9743 1213.23 84.211V84.5708C1213.23 89.2704 1211.3 93.9026 1207.45 98.2649C1207 98.7821 1206.4 99.0294 1205.77 99.0294V99.0294ZM1015.72 86.7969C1014.49 86.7969 1013.48 85.8525 1013.48 84.6158V84.5033C1013.48 79.7812 1015.39 75.1716 1019.16 70.8317C1019.97 69.8873 1021.41 69.7973 1022.33 70.6068C1023.27 71.4164 1023.36 72.833 1022.56 73.7774C1019.52 77.2628 1017.97 80.8831 1017.97 84.5033C1017.97 85.7401 1016.96 86.8194 1015.72 86.8194V86.7969ZM1202.35 71.1015C1201.83 71.1015 1201.32 70.9217 1200.89 70.5619C1197.97 68.0434 1194.26 65.6374 1189.9 63.4113C1188.8 62.8491 1188.35 61.4999 1188.91 60.3981C1189.48 59.2963 1190.82 58.8465 1191.92 59.4087C1196.62 61.7922 1200.62 64.4006 1203.81 67.144C1204.76 67.9535 1204.87 69.3701 1204.06 70.3145C1203.61 70.8317 1202.98 71.1015 1202.35 71.1015V71.1015ZM1035.48 63.816C1034.67 63.816 1033.88 63.3663 1033.48 62.6017C1032.91 61.4999 1033.34 60.1507 1034.44 59.5661C1038.29 57.5873 1042.6 55.7659 1047.32 54.1019C1048.49 53.6972 1049.77 54.3043 1050.17 55.4736C1050.58 56.6429 1049.97 57.9246 1048.8 58.3294C1044.29 59.9034 1040.15 61.6573 1036.49 63.5462C1036.15 63.7036 1035.81 63.7935 1035.45 63.7935L1035.48 63.816ZM1173.97 56.9352C1173.75 56.9352 1173.52 56.9127 1173.32 56.8453C1169.23 55.586 1164.82 54.4392 1160.26 53.4499C1159.05 53.18 1158.28 51.9882 1158.53 50.774C1158.8 49.5597 1159.99 48.7952 1161.21 49.0425C1165.9 50.0544 1170.42 51.2237 1174.62 52.5279C1175.81 52.8877 1176.46 54.1469 1176.1 55.3387C1175.81 56.3056 1174.91 56.9352 1173.95 56.9352H1173.97ZM1065.61 53.5623C1064.58 53.5623 1063.66 52.8427 1063.41 51.7859C1063.14 50.5716 1063.9 49.3798 1065.12 49.11C1069.5 48.1656 1074.06 47.3336 1078.73 46.6365C1079.97 46.4566 1081.09 47.3111 1081.27 48.5479C1081.45 49.7846 1080.6 50.9089 1079.39 51.0888C1074.82 51.7634 1070.35 52.5729 1066.08 53.4948C1065.93 53.5398 1065.77 53.5398 1065.61 53.5398V53.5623ZM1142.73 50.4592C1142.73 50.4592 1142.55 50.4592 1142.46 50.4592C1138.08 49.9195 1133.54 49.4923 1128.98 49.2224C1127.75 49.155 1126.8 48.0756 1126.89 46.8389C1126.96 45.6022 1128.06 44.6577 1129.27 44.7252C1133.93 45.0175 1138.55 45.4447 1143.03 46.0069C1144.26 46.1643 1145.14 47.2886 1144.98 48.5029C1144.85 49.6497 1143.88 50.4817 1142.76 50.4817L1142.73 50.4592ZM1097.21 49.2224C1096.04 49.2224 1095.05 48.3005 1094.96 47.1087C1094.87 45.872 1095.81 44.7926 1097.05 44.7252C1101.59 44.4329 1106.24 44.253 1110.85 44.208C1112.11 44.208 1113.09 45.1974 1113.12 46.4341C1113.12 47.6709 1112.13 48.6828 1110.89 48.7053C1106.35 48.7502 1101.79 48.9076 1097.34 49.2C1097.3 49.2 1097.25 49.2 1097.18 49.2L1097.21 49.2224Z" fill="#C6DAF7"/>
<path d="M785.411 80.4783C784.175 80.4783 783.163 79.4889 783.163 78.2521C783.163 77.0154 784.152 76.0035 785.388 75.981C789.927 75.9361 794.467 75.7787 798.939 75.4863C800.175 75.4189 801.253 76.3408 801.321 77.5776C801.41 78.8143 800.467 79.8936 799.231 79.9611C794.691 80.2534 790.04 80.4108 785.433 80.4558L785.411 80.4783ZM767.186 79.9836C767.186 79.9836 767.096 79.9836 767.051 79.9836C762.399 79.6913 757.77 79.264 753.298 78.7019C752.062 78.5445 751.186 77.4202 751.343 76.1834C751.501 74.9467 752.602 74.0922 753.86 74.2271C758.242 74.7668 762.782 75.194 767.343 75.4863C768.579 75.5763 769.523 76.6331 769.433 77.8699C769.366 79.0617 768.377 79.9836 767.186 79.9836V79.9836ZM817.231 78.0947C816.13 78.0947 815.163 77.2852 815.006 76.1609C814.826 74.9242 815.68 73.7999 816.916 73.62C821.478 72.9454 825.95 72.1584 830.219 71.214C831.433 70.9441 832.624 71.7087 832.893 72.9229C833.163 74.1372 832.399 75.3289 831.186 75.5988C826.826 76.5432 822.242 77.3752 817.568 78.0498C817.455 78.0498 817.343 78.0723 817.253 78.0723L817.231 78.0947ZM735.591 75.6887C735.433 75.6887 735.276 75.6887 735.119 75.6437C730.422 74.6319 725.905 73.4401 721.703 72.1359C720.512 71.7761 719.86 70.5169 720.22 69.3251C720.58 68.1333 721.838 67.4812 723.029 67.841C727.119 69.1002 731.501 70.247 736.085 71.2364C737.299 71.5063 738.063 72.698 737.815 73.9123C737.591 74.9692 736.647 75.6887 735.613 75.6887H735.591ZM848.264 70.7642C847.343 70.7642 846.466 70.1796 846.152 69.2576C845.747 68.0884 846.354 66.8067 847.523 66.4019C852.039 64.8279 856.174 63.0739 859.837 61.2076C860.938 60.6454 862.287 61.0727 862.871 62.1745C863.433 63.2763 863.006 64.6255 861.882 65.2101C858.039 67.1664 853.725 69.0103 849.006 70.6518C848.758 70.7417 848.511 70.7867 848.264 70.7867V70.7642ZM705.411 65.5024C705.074 65.5024 704.714 65.4125 704.4 65.2551C699.703 62.8716 695.703 60.2407 692.535 57.4974C691.591 56.6878 691.501 55.2712 692.31 54.3268C693.119 53.3824 694.535 53.2924 695.479 54.1019C698.4 56.6204 702.085 59.0264 706.445 61.275C707.546 61.8372 707.995 63.1864 707.434 64.2882C707.029 65.0752 706.243 65.5249 705.434 65.5249L705.411 65.5024ZM875.5 54.754C874.983 54.754 874.444 54.5741 874.017 54.1919C873.073 53.3824 872.983 51.9433 873.815 51.0213C876.893 47.491 878.466 43.8707 878.466 40.2279C878.466 38.9912 879.455 37.8894 880.691 37.8669C881.904 37.7769 882.938 38.6989 882.961 39.9356V40.2954C882.961 44.995 881.028 49.6272 877.185 53.9895C876.736 54.5067 876.129 54.754 875.5 54.754ZM685.456 42.5215C684.22 42.5215 683.209 41.5771 683.209 40.3404V40.2279C683.209 35.5058 685.119 30.8961 688.894 26.5563C689.703 25.6119 691.119 25.5219 692.063 26.3314C693.007 27.1409 693.097 28.5576 692.288 29.502C689.254 32.9874 687.703 36.6076 687.703 40.2279C687.703 41.4647 686.692 42.544 685.456 42.544V42.5215ZM872.084 26.8261C871.567 26.8261 871.05 26.6462 870.624 26.2865C867.702 23.768 863.994 21.362 859.635 19.1358C858.534 18.5737 858.084 17.2245 858.646 16.1227C859.208 15.0209 860.556 14.5711 861.657 15.1333C866.354 17.5168 870.354 20.1252 873.545 22.8686C874.489 23.6781 874.601 25.0947 873.792 26.0391C873.343 26.5563 872.713 26.8261 872.084 26.8261V26.8261ZM705.209 19.5406C704.4 19.5406 703.613 19.0909 703.209 18.3263C702.647 17.2245 703.074 15.8753 704.175 15.2907C708.018 13.3119 712.332 11.4905 717.051 9.82653C718.22 9.42178 719.501 10.0289 719.905 11.1982C720.31 12.3675 719.703 13.6492 718.535 14.0539C714.018 15.628 709.883 17.3819 706.22 19.2708C705.883 19.4282 705.546 19.5181 705.186 19.5181L705.209 19.5406ZM843.702 12.6823C843.478 12.6823 843.253 12.6598 843.028 12.5923C838.938 11.3331 834.556 10.1863 829.972 9.19692C828.759 8.92709 827.995 7.73532 828.242 6.52106C828.511 5.3068 829.702 4.54227 830.916 4.78962C835.613 5.8015 840.129 6.99327 844.332 8.27498C845.523 8.63476 846.174 9.89399 845.815 11.0858C845.523 12.0527 844.624 12.6823 843.657 12.6823H843.702ZM735.344 9.30935C734.31 9.30935 733.388 8.58979 733.141 7.53294C732.872 6.31868 733.636 5.12691 734.849 4.85708C739.209 3.91266 743.793 3.08066 748.467 2.38359C749.68 2.2037 750.827 3.05818 751.006 4.29492C751.186 5.53166 750.332 6.65598 749.096 6.83587C744.512 7.51045 740.04 8.31996 735.793 9.24189C735.636 9.28687 735.478 9.28687 735.321 9.28687L735.344 9.30935ZM812.467 6.20625C812.467 6.20625 812.287 6.20625 812.197 6.20625C807.815 5.66658 803.276 5.23934 798.714 4.96951C797.478 4.90205 796.534 3.82271 796.601 2.58597C796.691 1.34922 797.748 0.404803 798.984 0.472261C803.635 0.764583 808.264 1.19182 812.736 1.75398C813.972 1.91138 814.849 3.03569 814.691 4.24995C814.556 5.39675 813.59 6.22874 812.467 6.22874V6.20625ZM766.939 4.96951C765.77 4.96951 764.782 4.04757 764.692 2.8558C764.602 1.61906 765.546 0.53972 766.781 0.472261C771.321 0.17994 775.972 5.05914e-05 780.579 -0.0449219C781.838 -0.0449219 782.826 0.944472 782.849 2.18122C782.849 3.41796 781.86 4.42984 780.624 4.45232C776.085 4.4973 771.546 4.6547 767.074 4.94702C767.029 4.94702 766.984 4.94702 766.916 4.94702L766.939 4.96951Z" fill="#C6DAF7"/>
<path d="M476.851 498.924C474.581 498.879 472.356 498.834 470.109 498.834C468.873 498.834 467.862 497.822 467.862 496.586C467.862 495.349 468.873 494.337 470.109 494.337C472.401 494.337 474.649 494.359 476.896 494.427C478.132 494.449 479.12 495.484 479.098 496.72C479.075 497.935 478.064 498.924 476.851 498.924Z" fill="#C6DAF7"/>
<path d="M466.357 563.707C461.705 563.64 457.053 563.482 452.514 563.19C451.278 563.122 450.334 562.043 450.402 560.806C450.469 559.57 451.57 558.67 452.784 558.693C457.278 558.962 461.84 559.142 466.379 559.21C467.615 559.21 468.604 560.244 468.604 561.481C468.604 562.718 467.593 563.707 466.357 563.707V563.707ZM484.649 563.347C483.458 563.347 482.469 562.425 482.401 561.211C482.334 559.974 483.278 558.917 484.536 558.85C489.12 558.603 493.705 558.265 498.109 557.793C499.345 557.658 500.446 558.558 500.581 559.794C500.716 561.031 499.817 562.133 498.581 562.268C494.109 562.74 489.458 563.1 484.783 563.347C484.738 563.347 484.694 563.347 484.671 563.347H484.649ZM434.447 561.391C434.447 561.391 434.244 561.391 434.132 561.391C429.413 560.739 424.829 559.974 420.469 559.075C419.256 558.828 418.469 557.636 418.716 556.421C418.964 555.207 420.132 554.42 421.368 554.668C425.638 555.545 430.132 556.309 434.739 556.939C435.975 557.119 436.829 558.243 436.649 559.48C436.492 560.604 435.525 561.413 434.424 561.413L434.447 561.391ZM516.424 559.66C515.368 559.66 514.424 558.917 514.221 557.838C513.997 556.624 514.783 555.432 516.019 555.207C520.648 554.33 525.098 553.318 529.233 552.194C530.424 551.857 531.66 552.576 531.997 553.768C532.311 554.96 531.615 556.197 530.424 556.534C526.176 557.681 521.615 558.738 516.873 559.637C516.738 559.66 516.603 559.682 516.446 559.682L516.424 559.66ZM403.233 554.443C403.009 554.443 402.761 554.398 402.514 554.33C397.683 552.711 393.301 550.912 389.526 548.979C388.425 548.416 387.975 547.067 388.537 545.943C389.099 544.841 390.447 544.391 391.571 544.954C395.144 546.775 399.301 548.484 403.93 550.035C405.099 550.418 405.75 551.699 405.346 552.869C405.031 553.813 404.155 554.398 403.211 554.398L403.233 554.443ZM547.03 550.508C546.176 550.508 545.367 550.035 544.985 549.203C544.468 548.079 544.963 546.73 546.086 546.213C550.671 544.099 554.423 541.805 557.255 539.422C558.199 538.612 559.614 538.747 560.423 539.692C561.232 540.636 561.098 542.053 560.154 542.862C557.008 545.516 552.918 548.012 547.974 550.305C547.659 550.44 547.345 550.508 547.03 550.508V550.508ZM564.918 527.482C563.974 527.482 563.12 526.897 562.783 525.975C561.704 522.872 559.053 519.791 554.85 516.823C553.839 516.104 553.592 514.71 554.311 513.698C555.03 512.686 556.423 512.438 557.435 513.158C562.423 516.666 565.637 520.488 567.03 524.514C567.435 525.683 566.805 526.965 565.637 527.369C565.39 527.459 565.142 527.482 564.895 527.482H564.918ZM539.817 509.133C539.57 509.133 539.3 509.088 539.053 508.998C535.12 507.581 530.783 506.255 526.154 505.108C524.94 504.816 524.221 503.579 524.514 502.387C524.806 501.173 526.042 500.453 527.233 500.746C532.019 501.937 536.513 503.309 540.581 504.771C541.749 505.198 542.356 506.48 541.929 507.649C541.592 508.571 540.738 509.133 539.817 509.133ZM508.738 501.623C508.738 501.623 508.514 501.623 508.401 501.6C504.019 500.948 499.48 500.386 494.896 499.981C493.66 499.869 492.761 498.767 492.873 497.53C492.986 496.293 494.064 495.371 495.323 495.506C499.997 495.934 504.604 496.496 509.075 497.17C510.311 497.35 511.143 498.497 510.963 499.734C510.806 500.858 509.839 501.645 508.738 501.645V501.623Z" fill="#C6DAF7"/>
<path d="M376.492 537.668C375.728 537.668 374.964 537.263 374.559 536.566C373.121 534.115 372.402 531.596 372.402 529.033C372.402 527.796 373.413 526.784 374.649 526.784C375.885 526.784 376.896 527.796 376.896 529.033C376.896 530.787 377.413 532.541 378.447 534.295C379.076 535.374 378.717 536.746 377.66 537.375C377.301 537.578 376.919 537.69 376.514 537.69L376.492 537.668Z" fill="#C6DAF7"/>
<path d="M55.5727 389.663C54.5165 389.663 53.5502 388.899 53.3705 387.819C53.1457 386.605 53.9547 385.436 55.1907 385.211C56.9659 384.896 59.0783 384.469 61.4378 383.704C62.6288 383.322 63.8873 383.974 64.2693 385.143C64.6513 386.313 63.9996 387.594 62.8311 387.977C60.2244 388.831 57.9098 389.303 55.9772 389.641C55.8424 389.663 55.7075 389.686 55.5727 389.686V389.663Z" fill="#C6DAF7"/>
<path d="M395.436 500.993C394.649 500.993 393.863 500.566 393.458 499.823C392.851 498.744 393.256 497.372 394.357 496.765C397.054 495.281 399.885 493.752 402.851 492.178L406.312 490.312C407.413 489.727 408.761 490.132 409.368 491.234C409.952 492.336 409.548 493.685 408.447 494.269L404.964 496.136C402.02 497.71 399.188 499.239 396.492 500.723C396.155 500.903 395.773 500.993 395.413 500.993H395.436ZM423.211 485.77C422.424 485.77 421.683 485.365 421.256 484.645C420.626 483.566 421.008 482.194 422.087 481.565C426.312 479.136 430.087 476.843 433.615 474.594C434.671 473.919 436.042 474.234 436.716 475.291C437.39 476.348 437.076 477.72 436.02 478.394C432.424 480.688 428.604 483.004 424.312 485.477C423.952 485.68 423.57 485.77 423.188 485.77H423.211ZM449.66 468.365C448.986 468.365 448.334 468.073 447.885 467.488C447.121 466.499 447.3 465.105 448.289 464.34C451.997 461.462 455.39 458.516 458.379 455.638C459.278 454.784 460.694 454.806 461.547 455.683C462.401 456.582 462.379 457.999 461.503 458.854C458.401 461.844 454.896 464.88 451.053 467.871C450.649 468.185 450.154 468.343 449.682 468.343L449.66 468.365ZM102.246 453.569H101.033C99.797 453.569 98.7858 452.535 98.8083 451.298C98.8083 450.061 99.8195 449.072 101.055 449.072H102.269C106.246 449.072 110.381 449.005 114.539 448.87C115.752 448.735 116.808 449.792 116.853 451.028C116.898 452.265 115.932 453.322 114.696 453.344C110.494 453.502 106.314 453.569 102.269 453.569H102.246ZM82.9657 452.985C82.9657 452.985 82.8758 452.985 82.8309 452.985C78.2017 452.692 73.6174 452.265 69.213 451.77C67.977 451.636 67.1006 450.511 67.2355 449.274C67.3703 448.038 68.5164 447.161 69.7298 447.296C74.0669 447.79 78.5612 448.195 83.123 448.487C84.359 448.577 85.3028 449.634 85.2129 450.871C85.1455 452.063 84.1567 452.985 82.9657 452.985ZM132.651 452.31C131.482 452.31 130.516 451.411 130.404 450.241C130.314 449.005 131.235 447.925 132.471 447.813L134.763 447.633C138.606 447.476 142.359 447.341 146.111 447.206C147.347 447.093 148.403 448.128 148.448 449.364C148.493 450.601 147.527 451.658 146.291 451.703C142.538 451.838 138.786 451.973 135.055 452.13L132.853 452.31C132.853 452.31 132.741 452.31 132.673 452.31H132.651ZM164.269 450.938C163.078 450.938 162.089 450.016 162.021 448.802C161.954 447.565 162.92 446.509 164.156 446.441C169.1 446.194 173.504 445.924 177.639 445.609C178.853 445.519 179.954 446.441 180.044 447.678C180.134 448.915 179.212 449.994 177.976 450.084C173.797 450.399 169.37 450.669 164.381 450.938C164.336 450.938 164.313 450.938 164.269 450.938V450.938ZM51.6176 448.982C51.4603 448.982 51.3255 448.982 51.1682 448.937C46.6064 448.015 42.112 446.936 37.8199 445.744C36.6289 445.407 35.9323 444.17 36.2469 442.978C36.584 441.787 37.8199 441.067 39.0109 441.427C43.1907 442.596 47.5727 443.63 52.0446 444.53C53.258 444.777 54.0445 445.969 53.7974 447.183C53.5726 448.24 52.6513 448.982 51.5951 448.982H51.6176ZM195.796 448.308C194.673 448.308 193.729 447.476 193.572 446.351C193.414 445.114 194.291 443.99 195.504 443.833C200.133 443.226 204.605 442.529 208.785 441.742C209.999 441.517 211.19 442.304 211.414 443.54C211.639 444.755 210.852 445.946 209.617 446.171C205.347 446.981 200.808 447.7 196.089 448.308C195.999 448.308 195.886 448.308 195.796 448.308V448.308ZM471.503 445.699C471.076 445.699 470.671 445.587 470.289 445.339C469.255 444.665 468.941 443.271 469.615 442.236C472.087 438.414 473.974 434.501 475.278 430.588C475.66 429.397 476.941 428.767 478.109 429.149C479.278 429.532 479.929 430.813 479.547 431.983C478.154 436.255 476.064 440.505 473.39 444.665C472.963 445.339 472.244 445.699 471.503 445.699V445.699ZM226.785 441.989C225.819 441.989 224.92 441.359 224.628 440.37C224.268 439.178 224.965 437.919 226.156 437.582C230.515 436.3 234.762 434.816 238.762 433.219C239.908 432.747 241.212 433.309 241.684 434.478C242.156 435.625 241.594 436.93 240.425 437.402C236.291 439.066 231.909 440.572 227.414 441.899C227.212 441.966 226.987 441.989 226.785 441.989ZM21.3256 440.033C21.0335 440.033 20.7639 439.988 20.4717 439.875C17.8201 438.796 15.1684 437.627 12.6291 436.412C10.9886 435.558 9.41561 434.501 7.91001 433.242C6.96619 432.432 6.85383 431.016 7.64035 430.071C8.44933 429.127 9.86505 428.992 10.8089 429.801C12.0448 430.858 13.3257 431.713 14.6291 432.387C17.0335 433.534 19.5953 434.681 22.1571 435.715C23.3032 436.187 23.865 437.492 23.3931 438.638C23.0335 439.515 22.202 440.033 21.3032 440.033H21.3256ZM255.818 429.644C255.054 429.644 254.29 429.239 253.886 428.52C253.257 427.44 253.616 426.069 254.695 425.439C255.594 424.922 256.493 424.382 257.369 423.82C260.245 421.841 262.493 419.638 263.931 417.277C264.582 416.22 265.976 415.882 267.032 416.534C268.088 417.187 268.425 418.581 267.773 419.638C265.998 422.538 263.324 425.192 259.841 427.575C258.83 428.205 257.908 428.767 256.987 429.307C256.627 429.509 256.245 429.621 255.863 429.621L255.818 429.644ZM2.24712 418.041C2.04488 418.041 1.84263 418.019 1.64038 417.951C0.449381 417.614 -0.269716 416.377 0.0673608 415.185C0.112304 415.05 0.134776 414.915 0.17972 414.781C1.10106 410.036 3.6179 406.101 7.86506 402.795C8.83135 402.031 10.2471 402.211 11.0111 403.2C11.7752 404.19 11.5954 405.584 10.6066 406.348C7.16844 409.024 5.23587 412.015 4.53924 415.747C4.53924 415.837 4.4943 415.927 4.47183 416.017L4.35947 416.377C4.08981 417.366 3.19094 418.019 2.20218 418.019L2.24712 418.041ZM479.48 415.702C478.334 415.702 477.345 414.826 477.233 413.656C476.851 409.541 475.885 405.314 474.311 401.064C473.885 399.895 474.469 398.613 475.637 398.186C476.806 397.758 478.087 398.343 478.514 399.512C480.222 404.145 481.3 408.754 481.705 413.251C481.817 414.488 480.896 415.59 479.66 415.702C479.592 415.702 479.525 415.702 479.457 415.702H479.48ZM266.493 403.313C265.594 403.313 264.74 402.773 264.403 401.896C263.077 398.545 260.965 394.858 257.953 390.63C257.234 389.618 257.459 388.224 258.47 387.482C259.481 386.763 260.875 386.988 261.616 387.999C264.852 392.542 267.144 396.544 268.582 400.232C269.032 401.379 268.47 402.683 267.324 403.155C267.054 403.268 266.785 403.313 266.493 403.313V403.313ZM25.3481 398.658C24.4717 398.658 23.6402 398.141 23.2807 397.286C22.7863 396.139 23.3256 394.813 24.4717 394.341C25.7975 393.778 27.1234 393.194 28.4267 392.609C28.5391 392.542 28.6739 392.497 28.8087 392.474C31.8424 391.687 34.584 390.878 37.4379 389.911C38.6064 389.506 39.8873 390.136 40.2918 391.305C40.6963 392.474 40.0671 393.756 38.8986 394.161C36.0222 395.15 33.1683 396.005 30.1346 396.769C28.8537 397.354 27.5503 397.916 26.247 398.478C25.9548 398.59 25.6627 398.658 25.3706 398.658H25.3481ZM468.042 386.56C467.323 386.56 466.604 386.223 466.177 385.571C463.84 382.131 461.121 378.578 458.064 375.047C457.255 374.103 457.368 372.686 458.289 371.877C459.233 371.067 460.649 371.18 461.458 372.102C464.626 375.767 467.458 379.455 469.885 383.052C470.581 384.087 470.311 385.481 469.278 386.178C468.896 386.448 468.446 386.56 468.019 386.56H468.042ZM249.01 377.049C248.201 377.049 247.437 376.621 247.032 375.857C245.032 372.102 243.953 368.144 243.953 364.434C243.953 363.4 244.043 362.365 244.201 361.376C244.403 360.139 245.571 359.307 246.762 359.509C247.998 359.712 248.83 360.859 248.628 362.073C248.515 362.837 248.448 363.647 248.448 364.434C248.448 367.425 249.324 370.64 250.987 373.743C251.571 374.845 251.167 376.194 250.066 376.779C249.729 376.959 249.369 377.049 249.01 377.049V377.049ZM447.166 362.86C446.626 362.86 446.064 362.657 445.637 362.253C444.267 360.971 442.829 359.667 441.345 358.363C440.154 357.328 438.986 356.271 437.817 355.215L435.593 353.213C434.671 352.381 434.581 350.965 435.413 350.043C436.244 349.121 437.66 349.031 438.581 349.863L440.806 351.864C441.975 352.921 443.121 353.955 444.289 354.99C445.817 356.316 447.278 357.643 448.671 358.97C449.57 359.824 449.637 361.241 448.784 362.14C448.334 362.612 447.75 362.86 447.143 362.86H447.166ZM256.942 349.998C256.223 349.998 255.504 349.66 255.077 349.008C254.38 347.974 254.65 346.58 255.684 345.883C259.436 343.342 263.436 340.981 267.616 338.867C268.717 338.305 270.066 338.755 270.627 339.856C271.189 340.958 270.74 342.307 269.639 342.87C265.639 344.893 261.796 347.164 258.201 349.593C257.818 349.863 257.369 349.975 256.942 349.975V349.998ZM422.716 342.87C422.334 342.87 421.952 342.78 421.593 342.577C418.065 340.554 414.537 339.092 410.806 338.147L409.57 337.81C408.379 337.473 407.66 336.236 407.997 335.044C408.334 333.853 409.57 333.133 410.761 333.47L411.975 333.808C416.042 334.842 419.952 336.439 423.84 338.687C424.919 339.294 425.301 340.688 424.671 341.745C424.244 342.465 423.503 342.87 422.716 342.87V342.87ZM285.324 336.191C284.38 336.191 283.504 335.584 283.189 334.662C282.807 333.493 283.436 332.211 284.605 331.806C288.852 330.39 293.301 329.13 297.863 328.074C299.077 327.804 300.29 328.546 300.56 329.76C300.829 330.974 300.088 332.189 298.874 332.458C294.47 333.493 290.133 334.707 286.043 336.079C285.796 336.146 285.571 336.191 285.324 336.191ZM392.582 333.65C392.424 333.65 392.267 333.65 392.132 333.605C387.728 332.706 383.278 331.874 378.896 331.199C377.66 330.997 376.829 329.85 377.031 328.636C377.233 327.399 378.379 326.567 379.593 326.769C384.042 327.467 388.582 328.299 393.031 329.22C394.245 329.468 395.031 330.66 394.784 331.874C394.559 332.931 393.638 333.673 392.582 333.673V333.65ZM316.155 329.445C315.032 329.445 314.065 328.613 313.93 327.467C313.773 326.23 314.672 325.105 315.886 324.971C320.312 324.431 324.919 324.049 329.548 323.824C330.784 323.756 331.84 324.723 331.908 325.96C331.975 327.197 331.009 328.254 329.773 328.321C325.234 328.546 320.739 328.928 316.425 329.445C316.335 329.445 316.245 329.445 316.155 329.445V329.445ZM361.278 329.018C361.278 329.018 361.144 329.018 361.076 329.018C356.582 328.613 352.065 328.343 347.661 328.209C346.425 328.164 345.458 327.129 345.481 325.892C345.526 324.656 346.582 323.689 347.795 323.711C352.267 323.869 356.874 324.139 361.458 324.543C362.694 324.656 363.616 325.735 363.503 326.972C363.391 328.141 362.425 329.018 361.256 329.018H361.278Z" fill="#C6DAF7"/>
<path d="M374.649 514.889C374.132 514.889 373.593 514.709 373.166 514.327C372.245 513.495 372.155 512.078 372.964 511.157C374.267 509.672 376.065 508.121 378.402 506.412C379.413 505.692 380.806 505.917 381.548 506.907C382.267 507.918 382.042 509.313 381.054 510.055C379.009 511.539 377.413 512.91 376.335 514.147C375.885 514.642 375.278 514.912 374.649 514.912V514.889Z" fill="#C6DAF7"/>
<path d="M1209.12 748.476C1208.24 748.476 1207.41 747.959 1207.05 747.082C1206.58 745.935 1207.12 744.608 1208.26 744.136C1210.37 743.259 1212.46 742.405 1214.53 741.573C1215.68 741.123 1216.98 741.663 1217.45 742.832C1217.92 743.979 1217.36 745.283 1216.19 745.755C1214.13 746.587 1212.06 747.419 1209.97 748.296C1209.7 748.409 1209.41 748.476 1209.12 748.476Z" fill="#C6DAF7"/>
<path d="M1483.81 744.024C1483.47 744.024 1483.16 743.956 1482.82 743.799C1478.87 742.202 1474.84 740.696 1470.84 739.279C1469.68 738.875 1469.07 737.57 1469.47 736.401C1469.88 735.232 1471.16 734.625 1472.35 735.029C1476.44 736.491 1480.57 738.043 1484.6 739.662C1484.71 739.707 1484.82 739.752 1484.91 739.819C1485.95 740.449 1486.33 741.798 1485.77 742.855C1485.36 743.597 1484.6 744.046 1483.81 744.046V744.024ZM1231.68 739.796C1230.76 739.796 1229.88 739.212 1229.56 738.29C1229.16 737.121 1229.77 735.839 1230.94 735.434C1235.14 733.95 1239.36 732.578 1243.45 731.319C1244.64 730.937 1245.9 731.634 1246.26 732.803C1246.62 733.995 1245.95 735.254 1244.78 735.614C1240.73 736.851 1236.6 738.222 1232.44 739.662C1232.19 739.751 1231.95 739.796 1231.7 739.796H1231.68ZM1455.02 733.995C1454.82 733.995 1454.6 733.973 1454.39 733.905C1450.26 732.691 1446.04 731.521 1441.88 730.487C1440.66 730.195 1439.95 728.958 1440.24 727.766C1440.53 726.552 1441.77 725.833 1442.96 726.125C1447.18 727.182 1451.45 728.351 1455.65 729.61C1456.84 729.97 1457.52 731.207 1457.18 732.398C1456.89 733.388 1455.99 734.017 1455.02 734.017V733.995ZM1260.94 731.117C1259.92 731.117 1259 730.42 1258.76 729.385C1258.46 728.171 1259.21 726.957 1260.42 726.665C1264.64 725.653 1268.98 724.731 1273.29 723.899C1274.51 723.674 1275.7 724.461 1275.92 725.675C1276.15 726.889 1275.36 728.081 1274.15 728.306C1269.88 729.116 1265.61 730.037 1261.45 731.027C1261.27 731.072 1261.09 731.094 1260.94 731.094V731.117ZM1425.41 726.732C1425.27 726.732 1425.11 726.732 1424.98 726.687C1420.78 725.855 1416.46 725.09 1412.19 724.438C1410.96 724.236 1410.13 723.089 1410.33 721.875C1410.51 720.638 1411.68 719.829 1412.89 720.009C1417.23 720.683 1421.59 721.47 1425.86 722.302C1427.07 722.55 1427.86 723.719 1427.63 724.933C1427.43 726.012 1426.48 726.754 1425.43 726.754L1425.41 726.732ZM1290.91 725.405C1289.81 725.405 1288.87 724.618 1288.69 723.494C1288.51 722.257 1289.34 721.11 1290.58 720.93C1294.89 720.256 1299.27 719.649 1303.59 719.109C1304.82 718.974 1305.95 719.829 1306.1 721.065C1306.26 722.302 1305.38 723.427 1304.15 723.584C1299.88 724.124 1295.54 724.731 1291.25 725.383C1291.14 725.383 1291.03 725.405 1290.91 725.405ZM1395.23 722.19C1395.23 722.19 1395.07 722.19 1394.98 722.19C1390.69 721.74 1386.33 721.358 1382.04 721.065C1380.8 720.976 1379.86 719.896 1379.95 718.659C1380.04 717.423 1381.11 716.501 1382.35 716.568C1386.71 716.861 1391.11 717.243 1395.45 717.715C1396.69 717.85 1397.59 718.952 1397.45 720.188C1397.34 721.335 1396.35 722.212 1395.23 722.212V722.19ZM1321.2 721.74C1320.06 721.74 1319.07 720.863 1318.96 719.694C1318.85 718.457 1319.77 717.355 1321 717.265C1325.38 716.883 1329.79 716.568 1334.13 716.343C1335.41 716.253 1336.42 717.22 1336.49 718.457C1336.55 719.694 1335.61 720.751 1334.37 720.818C1330.1 721.065 1325.72 721.358 1321.38 721.74C1321.32 721.74 1321.25 721.74 1321.18 721.74H1321.2ZM1364.78 720.278C1360.4 720.188 1356.06 720.166 1351.72 720.211C1350.46 720.211 1349.45 719.222 1349.45 717.985C1349.45 716.748 1350.44 715.714 1351.68 715.714C1356.08 715.646 1360.46 715.669 1364.84 715.781C1366.08 715.804 1367.07 716.838 1367.05 718.075C1367.02 719.289 1366.01 720.278 1364.8 720.278H1364.78Z" fill="#C6DAF7"/>
<path d="M1501.79 759.562C1500.93 759.562 1500.15 759.09 1499.77 758.28C1498.82 756.279 1497.74 754.57 1496.48 753.086C1495.68 752.141 1495.79 750.725 1496.75 749.915C1497.7 749.106 1499.11 749.241 1499.92 750.185C1501.45 751.984 1502.73 754.008 1503.86 756.369C1504.39 757.493 1503.9 758.82 1502.78 759.36C1502.46 759.517 1502.15 759.584 1501.81 759.584L1501.79 759.562Z" fill="#C6DAF7"/>
<path d="M1190.91 758.888C1189.9 758.888 1188.96 758.191 1188.73 757.156C1188.44 755.942 1189.21 754.728 1190.42 754.458C1194.71 753.446 1197.09 752.996 1197.09 752.996C1198.31 752.771 1199.5 753.559 1199.72 754.773C1199.95 755.987 1199.16 757.179 1197.95 757.404C1197.93 757.404 1195.61 757.853 1191.45 758.82C1191.27 758.865 1191.12 758.888 1190.94 758.888H1190.91Z" fill="#C6DAF7"/>
<path d="M1023.77 824.57C1022.78 824.57 1021.88 823.918 1021.61 822.929C1021.27 821.737 1021.97 820.5 1023.16 820.163C1027.05 819.061 1031.14 817.779 1035.3 816.34C1036.47 815.935 1037.75 816.565 1038.15 817.734C1038.56 818.904 1037.93 820.185 1036.76 820.59C1032.51 822.052 1028.33 823.378 1024.38 824.48C1024.17 824.548 1023.97 824.57 1023.77 824.57ZM1052.06 814.631C1051.18 814.631 1050.33 814.114 1049.99 813.237C1049.52 812.09 1050.06 810.764 1051.21 810.291C1055 808.717 1058.96 807.008 1062.94 805.209C1064.08 804.692 1065.41 805.209 1065.9 806.334C1066.42 807.458 1065.9 808.807 1064.78 809.302C1060.76 811.123 1056.76 812.855 1052.91 814.451C1052.64 814.564 1052.35 814.631 1052.06 814.631V814.631ZM1079.32 802.106C1078.49 802.106 1077.7 801.657 1077.32 800.87C1076.76 799.768 1077.21 798.419 1078.31 797.856C1080.78 796.62 1083.3 795.316 1085.86 793.966C1087.14 793.292 1088.42 792.617 1089.7 791.965C1090.8 791.403 1092.15 791.83 1092.73 792.932C1093.3 794.034 1092.87 795.383 1091.77 795.968C1090.51 796.62 1089.23 797.272 1087.95 797.946C1085.34 799.318 1082.8 800.622 1080.33 801.881C1080.02 802.039 1079.66 802.129 1079.32 802.129V802.106ZM1106.15 788.66C1105.3 788.66 1104.49 788.187 1104.11 787.355C1103.59 786.231 1104.06 784.882 1105.18 784.365C1109.05 782.566 1113.03 780.789 1116.98 779.08C1118.13 778.586 1119.43 779.103 1119.93 780.25C1120.42 781.397 1119.9 782.723 1118.76 783.195C1114.85 784.882 1110.91 786.658 1107.07 788.435C1106.76 788.57 1106.44 788.637 1106.13 788.637L1106.15 788.66ZM1133.75 776.899C1132.85 776.899 1131.99 776.36 1131.66 775.46C1131.21 774.291 1131.79 773.009 1132.94 772.559C1136.91 771.008 1141 769.501 1145.05 768.04C1146.22 767.612 1147.5 768.22 1147.93 769.389C1148.35 770.558 1147.75 771.84 1146.58 772.267C1142.55 773.706 1138.53 775.213 1134.58 776.742C1134.31 776.854 1134.04 776.899 1133.77 776.899H1133.75ZM1162.04 766.938C1161.09 766.938 1160.19 766.331 1159.9 765.364C1159.52 764.172 1160.17 762.913 1161.36 762.553C1165.48 761.249 1169.66 759.99 1173.75 758.82C1174.94 758.483 1176.19 759.18 1176.53 760.372C1176.87 761.564 1176.17 762.8 1174.98 763.16C1170.94 764.307 1166.8 765.566 1162.73 766.848C1162.51 766.915 1162.28 766.96 1162.06 766.96L1162.04 766.938Z" fill="#C6DAF7"/>
<path d="M1000.31 828.999C999.072 828.999 998.061 827.988 998.061 826.751C998.061 825.514 999.05 824.502 1000.31 824.502C1000.31 824.502 1002.47 824.502 1006.67 823.828C1007.88 823.625 1009.05 824.48 1009.23 825.716C1009.41 826.953 1008.58 828.1 1007.34 828.28C1002.65 828.999 1000.38 828.999 1000.31 828.999V828.999Z" fill="#C6DAF7"/>
<path d="M137.055 764.756C137.055 764.756 136.898 764.756 136.808 764.756C136.786 764.756 134.269 764.487 130.224 764.262C128.988 764.194 128.022 763.137 128.089 761.901C128.156 760.664 129.213 759.675 130.449 759.764C134.628 759.989 137.19 760.259 137.302 760.282C138.538 760.417 139.415 761.541 139.28 762.778C139.145 763.924 138.179 764.779 137.055 764.779V764.756Z" fill="#C6DAF7"/>
<path d="M211.527 829C210.291 829 209.279 828.011 209.279 826.774C209.279 825.537 210.268 824.525 211.504 824.503C215.909 824.48 220.425 824.39 224.942 824.233C226.223 824.233 227.212 825.177 227.257 826.414C227.302 827.651 226.313 828.685 225.077 828.73C220.538 828.865 215.976 828.955 211.527 829ZM193.527 828.843C188.875 828.73 184.336 828.55 179.909 828.303C178.673 828.235 177.707 827.179 177.774 825.942C177.841 824.705 178.875 823.738 180.134 823.806C184.516 824.031 189.032 824.21 193.572 824.323C194.808 824.345 195.796 825.38 195.751 826.639C195.729 827.853 194.718 828.82 193.504 828.82L193.527 828.843ZM243.01 827.898C241.841 827.898 240.852 826.976 240.762 825.784C240.695 824.548 241.616 823.468 242.875 823.401L245.684 823.221C249.212 822.974 252.762 822.659 256.178 822.254C257.391 822.097 258.515 822.996 258.672 824.233C258.807 825.47 257.931 826.571 256.695 826.729C253.189 827.134 249.571 827.471 245.976 827.718L243.144 827.898C243.144 827.898 243.054 827.898 243.01 827.898ZM162.066 827.044C162.066 827.044 161.931 827.044 161.864 827.044C157.325 826.639 152.785 826.144 148.358 825.605C147.123 825.447 146.246 824.323 146.403 823.109C146.561 821.872 147.684 820.995 148.898 821.152C153.257 821.692 157.752 822.164 162.246 822.569C163.482 822.681 164.403 823.783 164.291 825.02C164.179 826.189 163.212 827.066 162.044 827.066L162.066 827.044ZM274.2 823.896C273.144 823.896 272.223 823.154 271.998 822.097C271.751 820.882 272.537 819.691 273.751 819.443C278.043 818.566 282.425 817.555 286.74 816.385C287.931 816.07 289.167 816.767 289.481 817.982C289.796 819.173 289.099 820.41 287.886 820.725C283.481 821.917 279.009 822.951 274.627 823.851C274.47 823.873 274.335 823.896 274.178 823.896H274.2ZM130.831 822.974C130.696 822.974 130.583 822.974 130.448 822.951C125.842 822.142 121.347 821.265 117.1 820.343C115.887 820.073 115.123 818.881 115.392 817.667C115.662 816.453 116.853 815.688 118.067 815.958C122.246 816.88 126.673 817.734 131.235 818.521C132.448 818.724 133.28 819.893 133.055 821.13C132.875 822.232 131.909 822.996 130.853 822.996L130.831 822.974ZM100.134 815.868C99.9094 815.868 99.6847 815.846 99.4824 815.778C94.8083 814.361 90.4712 812.832 86.5611 811.236C85.4151 810.764 84.8533 809.459 85.3252 808.313C85.7971 807.166 87.1005 806.604 88.2465 807.076C92.0443 808.628 96.2465 810.112 100.786 811.483C101.977 811.843 102.651 813.102 102.269 814.294C101.977 815.261 101.078 815.891 100.112 815.891L100.134 815.868ZM304.492 815.441C303.571 815.441 302.695 814.856 302.38 813.934C301.975 812.765 302.582 811.483 303.751 811.056C307.841 809.617 312.02 807.998 316.245 806.266C317.391 805.794 318.717 806.334 319.189 807.481C319.661 808.627 319.121 809.932 317.975 810.426C313.706 812.18 309.436 813.822 305.279 815.306C305.032 815.396 304.784 815.441 304.537 815.441H304.492ZM333.503 803.276C332.672 803.276 331.863 802.804 331.481 801.994C330.942 800.87 331.413 799.521 332.537 799.003C336.38 797.159 340.312 795.203 344.559 793.022C345.661 792.437 347.009 792.887 347.593 793.989C348.155 795.091 347.728 796.44 346.627 797.025C342.335 799.228 338.38 801.207 334.492 803.073C334.178 803.231 333.84 803.298 333.526 803.298L333.503 803.276ZM71.55 802.916C71.0781 802.916 70.6062 802.781 70.2242 802.466C65.3253 798.823 62.2467 794.978 61.0557 791.021C60.6961 789.829 61.3703 788.57 62.5613 788.232C63.7523 787.873 65.0107 788.547 65.3478 789.739C66.2467 792.752 68.7635 795.81 72.8758 798.846C73.8646 799.588 74.0893 801.005 73.3477 801.994C72.8983 802.601 72.2242 802.916 71.55 802.916V802.916ZM361.458 788.795C360.672 788.795 359.885 788.367 359.481 787.625C358.896 786.546 359.278 785.174 360.38 784.567C364.312 782.431 368.245 780.25 372.2 778.069C373.278 777.462 374.649 777.866 375.256 778.946C375.863 780.025 375.458 781.397 374.38 782.004C370.402 784.207 366.469 786.366 362.537 788.525C362.2 788.705 361.818 788.795 361.458 788.795V788.795ZM69.977 777.057C69.3478 777.057 68.7186 776.787 68.2916 776.292C67.4826 775.348 67.5725 773.931 68.4938 773.122C71.7523 770.266 75.8421 767.837 80.696 765.881C81.8421 765.409 83.1454 765.971 83.6173 767.118C84.0892 768.265 83.5275 769.591 82.3814 770.041C77.9994 771.818 74.3365 773.999 71.4601 776.517C71.0332 776.899 70.5163 777.079 69.977 777.079V777.057ZM389.054 773.616C388.267 773.616 387.481 773.189 387.076 772.447C386.492 771.345 386.896 769.996 387.975 769.389C391.907 767.253 395.863 765.117 399.907 763.003C401.009 762.418 402.357 762.845 402.941 763.947C403.525 765.049 403.098 766.398 401.997 766.983C397.975 769.097 394.042 771.21 390.132 773.347C389.795 773.526 389.413 773.616 389.054 773.616V773.616ZM98.9206 765.634C97.842 765.634 96.8757 764.847 96.6959 763.745C96.4937 762.508 97.3476 761.361 98.5611 761.182C102.831 760.507 107.415 760.035 112.224 759.787C113.415 759.742 114.516 760.664 114.583 761.924C114.651 763.16 113.707 764.217 112.449 764.285C107.797 764.532 103.348 764.982 99.2352 765.634C99.1229 765.634 99.0105 765.656 98.8757 765.656L98.9206 765.634ZM417.008 759.113C416.177 759.113 415.368 758.641 414.986 757.854C414.447 756.729 414.896 755.403 416.02 754.84C420.177 752.817 424.289 750.883 428.289 749.084C429.413 748.589 430.761 749.084 431.256 750.208C431.772 751.333 431.256 752.682 430.132 753.176C426.177 754.953 422.087 756.887 417.975 758.888C417.66 759.045 417.323 759.113 416.986 759.113H417.008ZM445.795 746.341C444.896 746.341 444.064 745.801 443.705 744.924C443.255 743.777 443.817 742.473 444.963 742.001C449.188 740.337 453.458 738.718 457.682 737.234C458.851 736.829 460.132 737.436 460.559 738.605C460.963 739.775 460.356 741.056 459.188 741.484C455.031 742.968 450.806 744.542 446.626 746.206C446.357 746.318 446.064 746.363 445.795 746.363V746.341ZM475.525 736.042C474.559 736.042 473.66 735.412 473.368 734.423C473.008 733.231 473.705 731.972 474.896 731.635C479.21 730.353 483.615 729.161 487.997 728.037C489.21 727.744 490.424 728.464 490.716 729.656C491.03 730.87 490.289 732.084 489.075 732.377C484.761 733.479 480.401 734.67 476.154 735.907C475.952 735.974 475.727 735.997 475.525 735.997V736.042ZM506.087 728.531C505.03 728.531 504.087 727.789 503.884 726.71C503.637 725.496 504.446 724.304 505.66 724.079C510.042 723.225 514.536 722.415 519.03 721.696C520.266 721.493 521.412 722.348 521.592 723.562C521.794 724.776 520.94 725.946 519.727 726.126C515.3 726.823 510.851 727.61 506.536 728.464C506.401 728.487 506.244 728.509 506.109 728.509L506.087 728.531Z" fill="#C6DAF7"/>
<path d="M537.615 723.742C536.491 723.742 535.502 722.887 535.39 721.741C535.255 720.504 536.154 719.402 537.39 719.267C539.615 719.02 541.862 718.795 544.131 718.592C545.367 718.48 546.468 719.38 546.581 720.639C546.693 721.875 545.794 722.977 544.536 723.09C542.289 723.292 540.064 723.517 537.862 723.764C537.772 723.764 537.704 723.764 537.615 723.764V723.742Z" fill="#C6DAF7"/>
<path d="M1373.32 807.098H1370.96C1369.72 807.098 1368.71 806.086 1368.71 804.849C1368.71 803.612 1369.72 802.6 1370.96 802.6H1373.29C1377.02 802.6 1380.73 802.578 1384.4 802.488C1385.65 802.488 1386.67 803.455 1386.69 804.692C1386.71 805.928 1385.72 806.963 1384.49 806.985C1380.8 807.053 1377.07 807.098 1373.29 807.098H1373.32ZM1353 806.715C1348.35 806.536 1343.81 806.311 1339.38 806.018C1338.15 805.928 1337.2 804.872 1337.29 803.635C1337.38 802.398 1338.4 801.476 1339.68 801.544C1344.06 801.836 1348.58 802.061 1353.09 802.218C1354.33 802.263 1355.29 803.298 1355.25 804.557C1355.2 805.771 1354.22 806.715 1353 806.715V806.715ZM1402.44 806.311C1401.25 806.311 1400.26 805.389 1400.19 804.175C1400.13 802.938 1401.07 801.881 1402.31 801.813C1406.87 801.566 1411.36 801.251 1415.7 800.892C1416.93 800.824 1418.01 801.724 1418.13 802.96C1418.22 804.197 1417.32 805.276 1416.06 805.389C1411.68 805.749 1407.14 806.063 1402.55 806.311C1402.51 806.311 1402.46 806.311 1402.42 806.311H1402.44ZM1321.61 804.534C1321.61 804.534 1321.45 804.534 1321.38 804.534C1316.76 804.062 1312.24 803.5 1307.92 802.915C1306.69 802.735 1305.83 801.611 1306.01 800.374C1306.19 799.138 1307.32 798.283 1308.55 798.463C1312.82 799.048 1317.3 799.587 1321.86 800.06C1323.09 800.194 1323.99 801.296 1323.86 802.533C1323.74 803.68 1322.76 804.557 1321.63 804.557L1321.61 804.534ZM1433.77 803.522C1432.64 803.522 1431.68 802.69 1431.54 801.544C1431.38 800.307 1432.26 799.183 1433.5 799.025C1438.06 798.463 1442.51 797.811 1446.75 797.091C1447.97 796.867 1449.14 797.721 1449.34 798.935C1449.54 800.149 1448.71 801.319 1447.5 801.521C1443.18 802.241 1438.66 802.893 1434.06 803.477C1433.97 803.477 1433.86 803.477 1433.77 803.477V803.522ZM1290.46 799.947C1290.33 799.947 1290.17 799.947 1290.01 799.902C1285.32 798.958 1280.85 797.946 1276.73 796.844C1275.54 796.529 1274.82 795.292 1275.14 794.101C1275.45 792.909 1276.69 792.189 1277.88 792.504C1281.9 793.561 1286.28 794.573 1290.89 795.495C1292.1 795.742 1292.89 796.911 1292.67 798.148C1292.46 799.228 1291.52 799.947 1290.46 799.947V799.947ZM1464.73 798.081C1463.72 798.081 1462.8 797.384 1462.55 796.349C1462.26 795.135 1463 793.921 1464.22 793.628C1468.87 792.504 1473.18 791.312 1477.02 790.053C1478.19 789.671 1479.47 790.3 1479.86 791.492C1480.24 792.662 1479.61 793.943 1478.42 794.326C1474.46 795.63 1470.04 796.867 1465.25 798.013C1465.07 798.058 1464.89 798.081 1464.73 798.081ZM1260.26 791.2C1259.97 791.2 1259.65 791.132 1259.36 791.02C1254.1 788.726 1250.01 786.253 1247.25 783.667C1246.33 782.813 1246.28 781.396 1247.14 780.497C1247.99 779.575 1249.41 779.53 1250.31 780.384C1252.71 782.633 1256.37 784.814 1261.16 786.905C1262.31 787.4 1262.82 788.726 1262.33 789.873C1261.97 790.728 1261.14 791.222 1260.26 791.222V791.2ZM1494.08 787.13C1493.34 787.13 1492.62 786.77 1492.19 786.096C1491.52 785.061 1491.81 783.667 1492.84 782.992C1495.88 781.014 1499.5 777.956 1499.5 774.538C1499.5 773.301 1500.51 772.289 1501.74 772.289C1502.98 772.289 1503.99 773.301 1503.99 774.538C1503.99 778.9 1501.07 783.015 1495.29 786.77C1494.91 787.018 1494.48 787.13 1494.08 787.13V787.13Z" fill="#C6DAF7"/>
</g>
<defs>
<clipPath id="clip0_147_210">
<rect width="1737" height="829" fill="white"/>
</clipPath>
</defs>
</svg>
