<svg width="488" height="587" viewBox="0 0 488 587" fill="none" xmlns="http://www.w3.org/2000/svg">
<g clip-path="url(#clip0_17_12)">
<path d="M50.6672 120.644C46.0768 137.341 41.4519 135.892 22.745 145.379C4.03819 154.901 0 176.601 0 176.601C0 176.601 17.2572 183.673 29.6479 197.197C66.1987 183.673 69.5121 168.701 69.5121 168.701L50.6672 120.644Z" fill="#BFB7CE"/>
<path d="M32.34 160.248C32.6161 160.248 32.8923 160.179 33.0993 160.007C35.3773 158.385 40.8651 156.143 40.9341 156.108C41.6244 155.832 41.9351 155.039 41.6589 154.383C41.3828 153.693 40.589 153.383 39.9332 153.659C39.6916 153.762 34.1003 156.039 31.5462 157.833C30.9595 158.247 30.8214 159.075 31.2356 159.696C31.5117 160.076 31.8913 160.248 32.3055 160.248H32.34Z" fill="#AEA6BF"/>
<path d="M31.6843 167.32C31.9949 167.32 32.3055 167.217 32.5471 167.01C35.895 164.146 41.797 164.215 41.866 164.215C42.5908 164.215 43.1776 163.629 43.2121 162.904C43.2121 162.18 42.6253 161.559 41.9005 161.559C41.6244 161.559 34.8941 161.49 30.7869 164.974C30.2346 165.457 30.1656 166.285 30.6488 166.837C30.9249 167.148 31.2701 167.32 31.6497 167.32H31.6843Z" fill="#AEA6BF"/>
<path d="M16.7049 178.636C16.9465 178.636 17.2226 178.567 17.4642 178.394C22.7104 174.841 24.2636 169.114 24.3326 168.872C24.5052 168.148 24.091 167.424 23.4007 167.251C22.6759 167.079 21.9511 167.493 21.7785 168.182C21.7785 168.251 20.3634 173.219 15.9801 176.186C15.3588 176.6 15.2208 177.428 15.6349 178.049C15.8765 178.429 16.3252 178.636 16.7394 178.636H16.7049Z" fill="#AEA6BF"/>
<path d="M48.2512 170.426C45.8697 160.455 45.0758 142.274 44.8688 133.167C47.2848 130.476 48.976 126.784 50.6672 120.644L63.6446 153.728L65.1288 174.634L56.9488 183.259C51.0123 187.606 42.3492 192.47 29.6479 197.162C26.0239 193.195 21.9512 189.779 18.051 186.951C25.2645 175.117 34.2038 170.529 48.2512 170.426Z" fill="#AEA6BF"/>
<path d="M82.6965 175.6C82.6965 175.6 136.505 175.221 149.102 175.255C161.976 181.051 175.23 365.448 175.23 365.448L170.053 373.762L119.696 368.932L82.6965 175.6Z" fill="#F4D5C6"/>
<path d="M140.094 182.396C140.094 182.396 125.702 181.499 124.942 237.457C124.149 293.414 143.684 356.306 148.895 362.274C160.009 361.55 162.977 353.235 162.977 353.235L140.129 182.396H140.094Z" fill="#DABFAE"/>
<path d="M149.724 357.41C149.724 357.41 118.523 222.174 130.361 202.613C142.2 183.052 171.882 203.613 177.577 233.938C183.272 264.228 172.676 358.859 172.676 358.859L149.724 357.41Z" fill="#D3B3A1"/>
<path d="M127.738 223.105C127.496 213.48 128.221 206.166 130.361 202.613C142.2 183.052 171.882 203.613 177.577 233.938C183.272 264.228 172.676 358.859 172.676 358.859L149.724 357.41C149.724 357.41 144.512 334.778 139.128 306.662C142.303 289.171 148.343 271.438 153.279 258.191C142.441 249.945 134.399 242.701 127.738 223.105Z" fill="#C6A595"/>
<path d="M24.16 196.886C24.4361 186.812 26.8176 177.325 68.7872 175.876C110.791 174.427 110.377 174.738 114.795 193.712C77.6574 215.274 24.1255 196.886 24.1255 196.886H24.16Z" fill="#FFF2E9"/>
<path d="M118.523 367.828C118.523 367.828 118.281 344.99 118.523 293.241C118.764 241.493 118.592 212.134 114.83 193.712C68.4767 199.749 35.1012 199.163 24.1602 196.886C27.0249 231.971 27.8877 258.742 31.063 294.104C34.2384 329.5 35.9641 352.131 43.7299 362.239C61.2977 365.172 70.0299 365.241 70.0299 365.241C70.0299 365.241 93.9829 371.347 118.488 367.828H118.523Z" fill="#FEE7D9"/>
<path d="M114.83 193.712C118.557 212.135 118.73 241.493 118.523 293.242C118.281 344.99 119.662 367.829 119.662 367.829C95.1219 371.347 70.0645 365.241 70.0645 365.241C70.0645 365.241 61.3323 365.172 43.7644 362.24C41.6936 359.549 40.0714 355.995 38.7253 351.545C103.958 361.895 98.4699 352.201 98.0212 318.633C97.5725 284.203 105.338 241.355 95.8122 207.581C72.7911 210.237 40.1404 208.305 25.0231 207.167C24.7815 203.786 24.5054 200.371 24.2292 196.852C35.1703 199.163 68.5458 199.715 114.899 193.678L114.83 193.712Z" fill="#F9E0D2"/>
<path d="M70.0298 390.77C70.0298 390.77 102.715 413.781 116.555 432.48C130.396 451.178 145.064 526.834 140.439 576.892C172.089 597.902 250.368 579.204 266.486 581.481C255.545 546.947 250.092 492.301 250.092 492.301C250.092 492.301 325.299 473.188 326.99 383.215C269.109 377.799 70.0643 390.77 70.0643 390.77H70.0298Z" fill="#F9E0D2"/>
<path d="M326.99 383.249C325.299 473.222 250.092 492.335 250.092 492.335C250.092 492.335 255.545 546.981 266.486 581.515C248.573 579.238 172.089 597.902 140.439 576.926C140.543 575.891 140.612 574.822 140.715 573.752C164.565 579.376 193.661 580.307 224.275 574.063C258.03 567.163 238.495 543.669 232.869 505.824C227.243 467.978 250.057 476.155 276.116 454.524C302.174 432.893 307.213 402.534 307.213 402.534C307.213 402.534 234.353 407.743 175.23 405.397C116.107 403.086 70.2714 390.77 70.2714 390.77L70.1333 390.839L70.0298 390.77C70.0298 390.77 269.075 377.833 326.955 383.215L326.99 383.249Z" fill="#F4D5C6"/>
<path d="M487.054 556.781L486.433 562.646C486.433 562.646 465.206 565.199 424.859 559.714C423.789 553.78 416.713 550.744 415.367 558.437C403.184 559.196 391.449 556.781 391.449 556.781L391 548.364C391 548.364 398.386 543.706 435.11 547.467C471.833 551.227 487.054 556.781 487.054 556.781Z" fill="#7B532E"/>
<path d="M441.814 526.948C448.907 532.12 460.994 538.233 475.457 543.271C492.743 549.283 487.13 556 487.13 556C487.13 556 462.544 556 443.467 553.951C424.39 551.902 419.914 548.376 391.367 547.805C389.887 537.729 393.33 529.333 393.812 525C411.89 531.852 432.964 533.094 441.814 526.948Z" fill="#D68641"/>
<path d="M393.741 513.759L432.121 507.929C432.811 508.895 432.811 521.314 441.682 526.903C432.811 533.216 411.723 531.94 393.568 524.902C393.775 523.005 393.706 513.759 393.706 513.759H393.741Z" fill="#F4C3A7"/>
<path d="M453.141 574.028L452.519 579.893C452.519 579.893 431.293 582.446 390.945 576.961C389.875 571.027 382.8 567.991 381.454 575.684C369.27 576.443 357.501 574.028 357.501 574.028L357.052 565.611C357.052 565.611 364.438 560.953 401.162 564.714C437.885 568.474 453.106 574.028 453.106 574.028H453.141Z" fill="#7B532E"/>
<path d="M359.641 531.008L398.193 525.178C398.884 526.144 399.056 538.563 407.926 544.152C398.159 550.465 377.795 549.189 359.641 542.151C359.848 540.254 359.641 531.008 359.641 531.008Z" fill="#F4C3A7"/>
<path d="M407.926 544.187C415.036 549.5 426.978 555.779 441.474 560.954C458.801 567.129 453.071 574.029 453.071 574.029C453.071 574.029 428.393 574.029 409.272 571.925C390.151 569.82 385.63 566.198 357.052 565.611C355.568 555.262 359.157 546.637 359.641 542.187C377.761 549.224 398.124 550.501 407.926 544.187Z" fill="#D68641"/>
<path d="M437.712 528.973C439.231 528.421 440.577 527.731 441.716 526.903C448.826 532.216 460.94 538.495 475.437 543.67C492.763 549.845 487.137 556.745 487.137 556.745C487.137 556.745 482.857 556.745 476.437 556.607C476.058 549.604 474.021 547.706 459.318 542.152C446.237 537.219 439.749 531.181 437.678 528.973H437.712Z" fill="#D68641"/>
<path d="M405.165 545.636C406.166 545.187 407.098 544.704 407.961 544.152C415.071 549.465 427.013 555.744 441.509 560.919C458.835 567.094 453.106 573.994 453.106 573.994C453.106 573.994 449.378 573.994 443.718 573.856C444.27 568.405 443.131 565.99 432.846 562.23C422.215 558.366 411.343 552.812 405.165 545.601V545.636Z" fill="#D68641"/>
<path d="M413.69 564.576C413.966 564.576 414.242 564.507 414.484 564.335C420.421 559.988 423.354 553.709 423.458 553.433C423.768 552.778 423.458 551.984 422.802 551.674C422.146 551.363 421.352 551.674 421.042 552.329C421.042 552.398 418.281 558.263 412.931 562.162C412.344 562.61 412.206 563.438 412.655 564.025C412.931 564.37 413.311 564.576 413.725 564.576H413.69Z" fill="#7B532E"/>
<path d="M402.853 560.471C403.129 560.471 403.405 560.367 403.647 560.195C410.48 554.985 413.897 548.569 414.035 548.293C414.381 547.637 414.139 546.844 413.483 546.499C412.827 546.154 412.034 546.395 411.688 547.051C411.688 547.12 408.375 553.26 402.059 558.09C401.472 558.539 401.369 559.367 401.817 559.953C402.093 560.298 402.473 560.471 402.887 560.471H402.853Z" fill="#7B532E"/>
<path d="M447.791 547.292C448.067 547.292 448.343 547.223 448.585 547.051C454.521 542.704 457.455 536.425 457.558 536.149C457.869 535.494 457.558 534.7 456.903 534.39C456.247 534.079 455.453 534.39 455.142 535.045C455.142 535.114 452.381 540.979 447.031 544.877C446.445 545.326 446.307 546.154 446.755 546.74C447.031 547.085 447.411 547.292 447.825 547.292H447.791Z" fill="#7B532E"/>
<path d="M436.953 543.221C437.229 543.221 437.506 543.117 437.747 542.945C444.546 537.735 447.998 531.319 448.136 531.043C448.481 530.387 448.24 529.594 447.584 529.249C446.928 528.904 446.134 529.145 445.789 529.801C445.789 529.87 442.476 536.01 436.159 540.84C435.573 541.289 435.469 542.117 435.918 542.703C436.194 543.048 436.574 543.221 436.988 543.221H436.953Z" fill="#7B532E"/>
<path d="M296.41 283.996C296.41 283.996 331.822 282.616 357.432 290.689C383.041 298.727 394.569 318.322 401.472 339.022C408.375 359.721 424.493 422.751 424.493 422.751L399.746 426.787C399.746 426.787 381.039 364.378 350.529 346.232C320.018 328.12 263.897 311.422 263.897 311.422C263.897 311.422 256.995 301.349 259.859 296.174C262.724 290.999 296.41 284.03 296.41 284.03V283.996Z" fill="#F4C3A7"/>
<path d="M296.41 283.995C296.41 283.995 303.244 283.719 313.081 284.133C307.8 286.79 299.378 291.206 296.583 293.759C322.986 295.553 356.983 292.551 379.176 316.528C401.403 340.505 412.206 419.266 412.206 419.266C412.206 419.266 412.413 421.543 412.689 424.648L399.746 426.752C399.746 426.752 389.53 392.702 371.928 367.621C365.37 345.059 354.187 327.361 337.413 324.532C311.769 320.219 266.728 314.423 260.066 303.867C259.687 302.797 259.411 301.693 259.272 300.624C259.514 298.554 260.722 296.312 262.551 294C271.18 289.239 296.41 284.03 296.41 284.03V283.995Z" fill="#EEB393"/>
<path d="M362.92 315.977C342.763 301.867 299.62 301.591 268.799 300.452L157.904 287.239C151.07 310.802 147.895 325.188 151.933 337.573C155.971 349.958 160.216 359.377 179.234 358.825C198.251 358.273 329.648 351.683 333.168 357.41C336.413 369.795 346.491 406.33 346.491 406.33C346.491 406.33 376.001 442.519 405.062 433.308C389.806 359.653 383.042 330.087 362.885 316.011L362.92 315.977Z" fill="#F6D3BA"/>
<path d="M151.967 337.573C147.929 325.188 151.104 310.837 157.938 287.239L263.069 299.797C227.347 314.183 168.948 304.109 168.948 304.109C168.948 304.109 159.112 330.156 174.678 339.195C194.696 351.752 281.155 336.987 316.705 337.573C352.255 338.16 352.565 367.484 359.951 400.637L346.249 405.433C344.661 399.706 336.136 368.657 333.203 357.445C329.682 351.683 198.286 358.307 179.268 358.859C160.251 359.411 156.005 349.993 151.967 337.608V337.573Z" fill="#F4C3A7"/>
<path d="M359.71 535.562C348.941 535.942 343.108 532.975 344.213 522.418C345.283 511.861 338.828 517.036 335.135 510.757C331.477 504.513 329.751 493.922 338.38 487.884C328.232 484.228 326.955 473.636 338.794 467.392C332.305 462.01 332.305 461.148 331.891 443.243C331.477 425.338 330.338 416.92 330.338 416.92C329.095 406.984 328.232 403.983 347.215 398.36C366.198 392.736 374.206 387.147 380.66 385.836C387.149 384.526 388.426 388.01 392.326 399.429C396.226 410.848 394.88 417.196 401.852 419.887C401.023 413.815 400.644 412.056 400.644 412.056C400.644 412.056 433.985 413.643 457.075 433.514C454.486 440.897 455.349 451.902 455.349 451.902C455.349 451.902 461.182 459.009 452.105 461.838C443.028 464.632 446.928 465.081 452.105 469.807C457.282 474.568 453.416 479.294 446.928 483.848C440.439 488.402 439.369 490.092 440.888 494.646C442.406 499.166 441.751 503.271 439.162 506.721C454.486 508.653 452.105 515.553 439.162 522.694C426.426 526.351 409.376 523.556 409.376 523.556C409.376 523.556 410.066 528.731 402.818 530.456C395.57 532.181 371.548 535.217 359.71 535.631V535.562Z" fill="#7B532E"/>
<path d="M427.209 513.152C427.209 507.391 425.725 506.046 430.902 499.387C436.079 492.729 427.382 486.726 436.735 478.515C446.089 470.305 443.983 470.201 438.702 462.715C433.422 455.194 448.746 450.985 448.746 450.985C448.746 450.985 440.29 440.325 428.072 437.22C415.854 434.115 408.33 431.01 407.329 428.561C404.74 422.317 417.821 425.042 433.042 430.907C448.297 436.772 453.06 448.26 454.855 452.262C454.855 452.262 460.688 459.368 451.611 462.197C442.534 464.992 446.434 465.44 451.611 470.167C456.788 474.927 452.922 479.654 446.434 484.208C439.945 488.762 438.875 490.452 440.394 495.006C441.912 499.525 441.256 503.631 438.668 507.08C453.992 509.012 451.611 515.912 438.668 523.054C429.867 525.572 419.029 525.02 413.162 524.433C413.162 524.433 427.209 518.948 427.209 513.187V513.152Z" fill="#D68641"/>
<path d="M349.873 509.585C351.219 512.552 348.527 514.76 343.35 516.312C341.555 513.966 337.689 515.07 335.135 510.758C331.857 505.169 330.131 496.13 335.998 489.955C336.033 506.722 348.562 506.653 349.873 509.585Z" fill="#D68641"/>
<path d="M342.901 483.124C347.181 485.987 341.866 490.024 338.38 487.885C328.612 484.366 327.059 474.465 337.482 468.151C335.032 476.742 338.587 480.295 342.901 483.158V483.124Z" fill="#D68641"/>
<path d="M338.829 445.313C336.654 456.698 342.625 460.113 344.523 463.528C346.422 466.944 342.487 469.738 338.829 467.358C332.34 461.976 332.34 461.114 331.926 443.209C331.753 436.447 331.511 431.03 331.235 426.891C332.271 425.545 333.686 424.234 335.619 423.682C340.106 422.337 391.36 403.845 391.36 403.845C391.36 403.845 392.395 403.19 393.499 403.052C393.81 404.156 394.086 405.191 394.328 406.191C387.321 412.608 365.025 419.163 351.564 424.579C336.896 430.478 341.037 433.928 338.863 445.313H338.829Z" fill="#D68641"/>
<path d="M405.372 464.391C406.339 470.98 407.685 475.637 413.069 481.951C416.969 485.608 414.933 485.918 410.757 488.505C406.615 491.093 410.653 492.887 414.588 495.992C418.522 499.097 421.974 498.338 415.243 505.789C408.548 513.241 407.34 511.447 408.755 518.451C409.134 520.348 409.341 522.038 409.48 523.487H409.41C409.41 523.487 410.101 528.662 402.853 530.387C395.605 532.112 371.583 535.148 359.744 535.562C348.976 535.942 343.143 532.975 344.247 522.383C344.42 520.762 344.385 519.52 344.247 518.554C350.667 526.523 347.112 530.077 363.541 528.628C379.97 527.213 397.986 524.764 396.882 515.415C395.777 506.065 405.614 507.687 399.574 497.786C393.534 487.884 404.268 486.332 399.574 477.431C392.222 463.425 401.783 456.111 402.887 443.45C403.992 430.789 400.471 427.546 398.676 417.852C399.505 418.68 400.54 419.335 401.921 419.852C401.921 419.852 407.34 427.477 407.995 440.483C408.651 453.489 404.44 457.801 405.407 464.391H405.372Z" fill="#D68641"/>
<path d="M267.659 300.797C248.297 300.797 240.186 303.384 207.811 302.108C175.437 300.797 157.938 287.239 157.938 287.239C157.938 287.239 162.77 275.164 167.395 255.293C172.02 235.421 175.816 204.131 194.144 166.561C207.57 124.748 218.511 93.4579 218.511 93.4579C218.511 93.4579 237.528 86.9721 282.466 87.7655C278.428 98.8052 276.875 120.298 294.753 129.682C312.632 139.066 327.853 132.373 336.136 119.815C343.177 126.68 359.157 143.343 365.37 159.04C365.37 159.04 320.19 217.378 307.869 246.668C295.513 275.957 293.683 284.375 293.683 284.375C293.683 284.375 284.157 296.105 267.694 300.831L267.659 300.797Z" fill="#FBDFC2"/>
<path d="M314.806 65.3418C335.032 84.5232 342.245 105.947 342.245 105.947L332.685 116.538C332.685 116.538 333.996 117.711 336.102 119.781C327.818 132.339 312.632 139.032 294.719 129.648C276.84 120.264 278.394 98.7713 282.432 87.7316C290.922 87.4211 302.174 80.1419 314.772 65.3418H314.806Z" fill="#F4C3A7"/>
<path d="M305.349 75.2775C308.387 72.4486 311.527 69.1712 314.772 65.3418C334.997 84.5232 342.211 105.947 342.211 105.947L332.65 116.538C332.65 116.538 333.962 117.711 336.067 119.781C333.133 124.266 329.268 127.992 324.746 130.51C308.11 108.776 305.66 82.3498 305.28 75.243L305.349 75.2775Z" fill="#EEB393"/>
<path d="M291.682 252.636C291.682 252.636 287.091 254.119 270.386 251.98C253.681 249.807 247.227 248.945 244.19 257.431C241.153 265.918 242.464 273.094 250.955 276.854C259.445 280.615 262.483 281.891 262.483 281.891C262.483 281.891 277.255 286.928 287.92 285.652C295.271 273.301 291.682 252.67 291.682 252.67V252.636Z" fill="#F4C3A7"/>
<path d="M283.226 253.602C274.77 254.603 265.761 254.327 258.651 250.359C251.507 246.392 247.4 247.634 250.989 252.429C253.233 256.086 258.789 257.984 258.789 257.984C258.789 257.984 248.642 261.571 239.737 263.848C230.833 266.125 228.624 267.85 229.141 269.886C230.418 273.301 249.47 267.298 249.712 269.368C249.954 271.404 229.487 273.301 230.695 277.475C231.972 281.891 251.61 273.646 252.404 276.026C253.198 278.407 232.593 281.408 233.87 285.79C235.147 290.171 252.853 282.236 253.647 284.686C254.406 287.135 236.666 290.206 237.805 293.621C238.944 297.036 249.367 293.862 256.235 291.965C263.069 290.068 280.948 286.066 288.368 285.41C292.993 266.194 283.295 253.637 283.295 253.637L283.226 253.602Z" fill="#F4C3A7"/>
<path d="M216.544 236.871C216.544 236.871 186.965 228.211 182.72 206.546C179.372 191.125 199.632 173.91 199.632 173.91C199.632 173.91 222.964 125.197 218.511 93.4238C189.899 102.601 161.045 141.722 140.232 175.221C119.42 208.754 133.537 229.764 161.493 250.981C189.45 272.197 211.091 271.266 211.091 271.266L216.578 236.802L216.544 236.871Z" fill="#D68641"/>
<path d="M296.963 140.515C294.512 139.514 292.062 138.238 289.611 136.582C268.143 122.265 269.04 102.462 272.63 87.6621C275.771 87.6621 279.05 87.6621 282.467 87.7311C278.428 98.7708 276.875 120.264 294.754 129.647C312.632 139.031 327.853 132.338 336.137 119.781C337.759 121.368 339.899 123.507 342.246 126.025C333.859 137.41 317.361 147.345 299.482 141.481C299.482 141.584 299.413 141.653 299.344 141.757L279.084 174.22C278.843 174.634 278.394 174.841 277.945 174.841C277.704 174.841 277.462 174.772 277.255 174.634C276.634 174.255 276.426 173.427 276.841 172.806L296.963 140.549V140.515Z" fill="#D68641"/>
<path d="M285.607 140.688C283.743 140.688 282.225 142.205 282.225 144.068C282.225 145.931 283.743 147.449 285.607 147.449C287.471 147.449 288.989 145.931 288.989 144.068C288.989 142.205 287.471 140.688 285.607 140.688Z" fill="#D68641"/>
<path d="M279.809 149.209C277.945 149.209 276.426 150.727 276.426 152.59C276.426 154.453 277.945 155.971 279.809 155.971C281.672 155.971 283.191 154.453 283.191 152.59C283.191 150.727 281.672 149.209 279.809 149.209Z" fill="#D68641"/>
<path d="M273.976 157.695C272.112 157.695 270.593 159.213 270.593 161.076C270.593 162.939 272.112 164.457 273.976 164.457C275.839 164.457 277.358 162.939 277.358 161.076C277.358 159.213 275.839 157.695 273.976 157.695Z" fill="#D68641"/>
<path d="M365.335 159.041C369.236 170.426 356.086 189.435 342.245 213.308C328.37 237.181 337.034 251.567 326.955 266.816C316.877 282.064 287.919 285.652 287.919 285.652C287.919 285.652 293.994 269.162 291.682 252.671C307.834 246.668 312.425 237.147 312.425 237.147C312.425 237.147 324.781 204.614 334.065 188.641C343.35 172.668 365.335 159.041 365.335 159.041Z" fill="#D68641"/>
<path d="M50.6673 120.643C50.6673 120.643 92.3953 118.642 109.376 119.505C113.691 150.002 114.83 175.255 114.83 175.255L56.9489 176.566C56.9489 176.566 49.8044 143.068 50.6673 120.643Z" fill="#BFB7CE"/>
<path d="M358.571 503.478C362.437 503.478 368.442 502.616 376.898 499.028C377.588 498.752 377.899 497.958 377.588 497.268C377.312 496.579 376.519 496.268 375.828 496.579C360.952 502.892 354.257 500.27 354.222 500.235C353.566 499.959 352.773 500.27 352.496 500.925C352.22 501.581 352.496 502.374 353.187 502.65C353.325 502.719 355.085 503.444 358.606 503.444L358.571 503.478Z" fill="#D68641"/>
<path d="M359.192 484.435C361.435 484.435 363.61 484.193 365.508 483.503C366.198 483.262 366.578 482.503 366.302 481.813C366.06 481.123 365.301 480.744 364.611 481.02C357.915 483.434 346.077 479.536 345.938 479.502C345.248 479.26 344.489 479.64 344.247 480.33C344.006 481.02 344.385 481.779 345.076 482.02C345.455 482.158 352.496 484.469 359.157 484.469L359.192 484.435Z" fill="#D68641"/>
<path d="M376.048 454.263C376.773 454.263 377.498 454.263 378.222 454.263C378.947 454.263 379.534 453.642 379.534 452.917C379.534 452.193 378.913 451.606 378.188 451.606C357.79 452.02 345.02 446.19 344.881 446.121C344.226 445.811 343.432 446.121 343.121 446.777C342.811 447.432 343.121 448.226 343.777 448.536C344.295 448.778 356.34 454.297 376.083 454.297L376.048 454.263Z" fill="#D68641"/>
<path d="M436.976 470.918C437.7 470.918 438.322 470.331 438.322 469.572C438.322 468.813 437.735 468.227 436.976 468.227C429.866 468.227 426.207 465.329 426.173 465.294C425.586 464.846 424.758 464.915 424.309 465.467C423.826 466.019 423.929 466.881 424.481 467.33C424.654 467.468 428.83 470.883 436.976 470.883V470.918Z" fill="#D68641"/>
<path d="M384.112 398.554C384.112 401.072 382.075 403.108 379.556 403.108C377.036 403.108 375 401.072 375 398.554C375 396.035 377.036 394 379.556 394C382.075 394 384.112 396.035 384.112 398.554Z" fill="#D68641"/>
<path d="M333.203 357.41C330.165 350.648 323.055 350.234 304.694 351.096C286.332 351.959 241.877 355.616 212.299 356.064C182.72 356.478 149.689 357.444 149.689 357.444L148.826 368.242C148.826 368.242 186.827 375.694 240.98 373.348C295.168 370.968 333.134 357.444 333.134 357.444L333.203 357.41Z" fill="#D3B3A1"/>
<path d="M70.0298 365.241C70.0298 365.241 111.827 370.037 202.531 367.449C293.235 364.862 333.272 357.41 333.272 357.41V381.732C333.272 381.732 290.612 393.945 202.6 393.945C114.588 393.945 70.0643 390.771 70.0643 390.771C70.0643 390.771 67.2686 377.972 70.0643 365.241H70.0298Z" fill="#FEE7D9"/>
<path d="M294.857 274.508C294.857 274.508 319.949 269.575 322.4 252.636C324.85 235.697 328.854 214.066 338.38 198.507C347.768 183.259 357.535 178.463 360.849 162.007C363.575 160.075 365.336 159.006 365.336 159.006C369.236 170.391 356.086 189.399 342.246 213.273C328.371 237.146 337.034 251.532 326.956 266.781C319.604 277.889 302.278 282.823 293.373 284.651L294.857 274.508Z" fill="#CC7932"/>
<path d="M210.124 96.9427C212.92 95.5283 215.681 94.3208 218.477 93.4238C222.964 125.163 199.597 173.91 199.597 173.91C199.597 173.91 179.337 191.125 182.685 206.546C186.24 224.761 207.639 233.766 214.439 236.181C212.54 239.044 210.4 242.149 207.95 245.599C149.31 225.831 177.301 177.877 191.728 159.317C205.43 141.722 212.333 118.643 210.09 96.9427H210.124Z" fill="#CC7932"/>
<path d="M403.992 64.0649C398.297 73.2071 377.588 99.9783 367.475 110.397C357.328 120.816 343.936 118.608 329.889 106.671C315.876 94.7345 307.834 83.7293 308.283 62.547C308.732 41.3991 316.325 23.0456 333.927 10.5225C351.53 -2.00062 363.437 -6.175 388.184 13.6619C412.931 33.4643 412.62 50.1618 403.992 64.0304V64.0649Z" fill="#7B532E"/>
<path d="M343.937 105.705C360.365 114.571 369.374 95.321 385.492 75.7946C401.576 56.3027 404.855 42.6066 400.299 25.3916C412.448 40.1917 410.895 53.0253 403.992 64.0649C398.297 73.2072 377.588 99.9784 367.475 110.397C357.328 120.816 343.937 118.608 329.889 106.671C318.327 96.839 310.803 87.5932 308.801 72.7242C317.257 85.4543 328.198 97.184 343.937 105.671V105.705Z" fill="#7B532E"/>
<path d="M370.754 106.878C366.75 89.0418 349.424 80.762 340.623 78.3816C331.822 76.0012 327.507 70.6193 331.235 64.0645C338.69 49.6095 352.841 33.2224 360.158 34.5679C377.139 38.6043 391.773 53.5078 403.992 64.0645C398.849 72.3098 381.557 94.8376 370.754 106.878Z" fill="#F6D3BA"/>
<path d="M338.103 43.6417C338.103 43.6417 330.2 52.301 327.231 59.4423C318.741 52.577 316.946 46.7811 321.433 40.0538C325.92 33.361 335.757 37.8114 338.138 43.6417H338.103Z" fill="#F6D3BA"/>
<path d="M326.679 42.5723C326.852 41.8479 327.577 41.4339 328.301 41.6064C329.026 41.7789 329.44 42.5033 329.268 43.2278C329.268 43.2623 328.232 47.8162 330.752 53.0945C330.234 53.888 329.716 54.716 329.233 55.5439C329.026 55.4404 328.854 55.268 328.75 55.0265C325.264 48.5062 326.645 42.8138 326.679 42.5723Z" fill="#F4C3A7"/>
<path d="M367.613 98.495C373.032 92.4232 378.623 84.1434 385.492 75.7947C390.738 69.4124 394.638 63.651 397.33 58.2002C399.608 60.2356 401.852 62.2366 403.992 64.065C398.849 72.3103 381.557 94.8381 370.754 106.878C370.064 103.808 368.959 101.013 367.613 98.495Z" fill="#F4C3A7"/>
<path d="M391.014 39.7433C391.463 39.7433 391.912 39.5018 392.153 39.0878C393.844 36.2589 393.361 32.2915 391.014 30.2216C388.909 28.3586 385.941 28.5656 383.041 30.8081C382.455 31.2566 382.351 32.0845 382.8 32.671C383.248 33.2575 384.077 33.361 384.663 32.9125C385.733 32.0845 387.735 30.8771 389.219 32.2225C390.565 33.43 390.876 36.0519 389.841 37.7424C389.461 38.3633 389.668 39.1913 390.289 39.5708C390.496 39.7088 390.738 39.7778 390.98 39.7778L391.014 39.7433Z" fill="#7B532E"/>
<path d="M385.526 23.7362C385.941 23.7362 386.355 23.5637 386.596 23.1842C387.977 21.2868 387.252 17.9059 385.009 15.974C383.214 14.387 380.177 13.8005 377.105 16.7674C376.587 17.2849 376.553 18.1129 377.105 18.6649C377.623 19.1824 378.451 19.2169 379.003 18.6649C380.108 17.5954 381.73 16.6294 383.283 17.9749C384.56 19.0789 384.905 20.9763 384.457 21.5973C384.008 22.1838 384.146 23.0117 384.733 23.4602C384.974 23.6327 385.25 23.7017 385.526 23.7017V23.7362Z" fill="#7B532E"/>
<path d="M377.174 28.2895C377.899 28.2895 378.485 27.7375 378.52 27.013C378.692 23.6666 375.966 21.3897 373.239 21.1482C370.789 20.9067 368.062 22.3902 367.51 26.2195C367.406 26.944 367.924 27.634 368.649 27.7375C369.374 27.841 370.064 27.3235 370.167 26.599C370.443 24.7016 371.444 23.6666 372.998 23.8046C374.447 23.9426 375.931 25.1501 375.862 26.9095C375.828 27.634 376.38 28.255 377.139 28.2895H377.208H377.174Z" fill="#7B532E"/>
<path d="M370.513 15.87C371.203 15.87 371.79 15.3525 371.824 14.628C372.031 11.9026 370.858 9.38418 368.614 7.90072C366.578 6.55526 364.127 6.31377 362.195 7.27974C361.09 7.83173 359.192 9.31518 359.054 12.9031C359.054 13.6276 359.606 14.2485 360.331 14.283C361.125 14.283 361.677 13.7311 361.711 13.0066C361.78 11.3161 362.367 10.1777 363.403 9.62567C364.472 9.07369 365.922 9.28068 367.13 10.0742C368.545 11.0401 369.305 12.5926 369.166 14.3865C369.097 15.111 369.65 15.7665 370.374 15.8355H370.478L370.513 15.87Z" fill="#7B532E"/>
<path d="M349.217 29.1866C349.217 29.1866 349.493 29.1866 349.632 29.1176C350.322 28.9106 350.736 28.1516 350.494 27.4616C349.562 24.5292 351.495 23.6322 352.117 23.4252C353.497 22.9767 355.188 23.4252 355.775 25.1502C356.017 25.8402 356.776 26.2196 357.466 25.9782C358.157 25.7367 358.536 24.9777 358.295 24.2877C357.156 20.9758 353.808 20.0443 351.288 20.9068C348.838 21.7003 346.732 24.3567 347.94 28.2551C348.113 28.8416 348.631 29.1866 349.217 29.1866Z" fill="#7B532E"/>
<path d="M343.281 16.7671C343.281 16.7671 343.522 16.7671 343.66 16.6981C344.351 16.4911 344.765 15.7322 344.558 15.0422C344.074 13.4897 344.212 12.2478 344.868 11.5923C345.49 10.9713 346.594 10.7643 347.733 11.1093C348.975 11.4543 349.838 12.3168 350.08 13.3862C350.253 14.1107 350.943 14.5592 351.668 14.3867C352.392 14.2142 352.841 13.5242 352.669 12.7998C352.22 10.7643 350.632 9.14286 348.458 8.52188C346.387 7.9354 344.282 8.38388 342.97 9.69484C342.176 10.4883 340.968 12.3513 342.004 15.8012C342.176 16.3876 342.694 16.7671 343.281 16.7671Z" fill="#7B532E"/>
<path d="M332.305 29.187C332.995 29.187 333.582 28.6695 333.617 27.9795C333.686 27.1515 333.996 25.2541 335.411 25.2886C336.481 25.2886 337.758 26.4615 337.862 27.945C337.896 28.6695 338.518 29.256 339.277 29.187C340.002 29.1525 340.589 28.5315 340.519 27.7725C340.381 25.0126 338.069 22.6322 335.446 22.5977C333.513 22.5977 331.304 23.9086 330.959 27.738C330.89 28.4625 331.442 29.118 332.167 29.187H332.27H332.305Z" fill="#7B532E"/>
<path d="M319.811 74.2418C320.674 74.2418 321.571 74.0003 322.469 73.5518C323.124 73.2068 323.4 72.4133 323.055 71.7578C322.71 71.1024 321.916 70.8264 321.261 71.1714C320.57 71.5163 319.604 71.8268 318.81 71.2404C318.154 70.7574 317.809 69.7914 317.982 68.8599C318.085 68.2734 318.465 67.2385 319.949 66.79C320.639 66.583 321.053 65.824 320.846 65.134C320.639 64.4441 319.88 64.0301 319.19 64.2371C317.119 64.8925 315.738 66.4105 315.393 68.4114C315.082 70.3434 315.807 72.3098 317.291 73.3793C318.051 73.9313 318.948 74.2073 319.88 74.2073L319.811 74.2418Z" fill="#7B532E"/>
<path d="M327.68 87.1449C328.543 87.1449 329.509 86.9379 330.476 86.4549C331.131 86.1444 331.408 85.3165 331.062 84.661C330.752 84.0055 329.923 83.7295 329.268 84.04C327.3 85.006 325.885 84.1435 325.23 83.005C324.47 81.6941 324.505 79.6931 326.403 78.4512C327.024 78.0372 327.197 77.2092 326.783 76.6227C326.368 76.0017 325.54 75.8292 324.953 76.2432C321.778 78.3132 321.502 81.9011 322.917 84.3505C323.814 85.9029 325.506 87.1449 327.646 87.1449H327.68Z" fill="#7B532E"/>
<path d="M340.071 88.3183C341.451 88.3183 342.832 87.8353 343.764 86.6623C344.212 86.0759 344.143 85.2479 343.557 84.7994C342.97 84.3509 342.142 84.4199 341.693 85.0064C340.899 85.9724 339.173 85.7999 338 85.0754C337.31 84.6614 336.24 83.6954 336.93 82.1775C337.241 81.522 336.93 80.7285 336.274 80.418C335.618 80.1075 334.825 80.418 334.514 81.0735C333.444 83.4539 334.272 85.9034 336.619 87.3523C337.62 87.9733 338.863 88.3528 340.071 88.3528V88.3183Z" fill="#7B532E"/>
<path d="M340.727 101.013C342.004 101.013 343.384 100.599 344.73 99.6332C345.317 99.2192 345.455 98.3567 345.041 97.7702C344.627 97.1837 343.764 97.0457 343.177 97.4597C340.865 99.1157 338.794 98.1497 337.758 96.8387C336.654 95.4588 336.309 93.2854 338.069 91.6984C338.621 91.2154 338.656 90.3529 338.173 89.801C337.689 89.249 336.827 89.2145 336.274 89.6975C333.341 92.3194 333.755 96.1143 335.653 98.4947C336.792 99.9437 338.621 100.979 340.692 100.979L340.727 101.013Z" fill="#7B532E"/>
<path d="M371.203 63.9266C374.344 59.3728 369.408 58.1308 362.126 56.7853C354.809 55.4399 353.635 58.7173 357.363 61.2702C361.09 63.7886 368.235 68.2735 371.238 63.9611L371.203 63.9266Z" fill="#7B532E"/>
<path d="M381.178 70.6544C385.216 66.2385 388.495 74.7598 391.014 82.0736L387.701 86.3514C382.903 80.4866 377.588 74.6218 381.178 70.6544Z" fill="#7B532E"/>
<path d="M295.237 284.272C299.792 269.679 298.239 249.738 298.239 249.738C296.306 250.773 294.132 251.739 291.682 252.636C293.994 269.127 287.919 285.617 287.919 285.617C287.919 285.617 290.888 285.238 295.237 284.237V284.272Z" fill="#CC7932"/>
<path d="M208.916 233.938C213.334 235.938 216.544 236.87 216.544 236.87L211.056 271.334C211.056 271.334 208.329 271.438 203.601 270.644H203.497C199.839 247.565 208.398 234.696 208.951 233.938H208.916Z" fill="#CC7932"/>
<path d="M216.544 236.87C225.724 237.974 235.457 237.663 243.189 233.351C250.92 229.039 255.372 230.384 251.507 235.594C249.091 239.561 243.085 241.631 243.085 241.631C243.085 241.631 254.095 245.529 263.725 248.013C273.354 250.463 275.77 252.326 275.218 254.568C273.803 258.294 253.163 251.774 252.922 253.981C252.68 256.189 274.838 258.259 273.561 262.779C272.181 267.574 250.885 258.639 250.023 261.192C249.16 263.779 271.525 267.022 270.144 271.748C268.764 276.509 249.539 267.885 248.711 270.575C247.883 273.232 267.142 276.544 265.899 280.27C264.657 283.996 253.37 280.511 245.95 278.476C238.529 276.406 219.167 272.093 211.125 271.369C206.12 250.532 216.613 236.904 216.613 236.904L216.544 236.87Z" fill="#F6D3BA"/>
<path d="M109.376 119.505C113.691 150.002 114.83 176.014 114.83 176.014H81.7302C87.9428 173.358 96.2608 168.631 97.0892 162.318C98.0901 154.659 96.0882 130.786 95.0183 119.298C100.541 119.263 105.545 119.298 109.342 119.505H109.376Z" fill="#AEA6BF"/>
<path d="M84.0082 143.24H84.0772C84.802 143.205 85.3887 142.55 85.3197 141.825C85.1126 138.169 85.3197 131.959 85.3197 131.89C85.3197 131.165 84.7675 130.544 84.0427 130.51C83.2834 130.51 82.6966 131.062 82.6621 131.786C82.6621 132.062 82.455 138.169 82.6621 141.963C82.6966 142.688 83.2834 143.205 84.0082 143.205V143.24Z" fill="#AEA6BF"/>
<path d="M74.8964 141.653C75.5176 141.653 76.0698 141.239 76.2079 140.584C77.0017 136.754 76.2769 128.751 76.2079 128.406C76.1389 127.681 75.4831 127.129 74.7583 127.198C74.0335 127.267 73.4813 127.923 73.5503 128.647C73.5503 128.716 74.3096 136.582 73.5503 139.997C73.4122 140.722 73.8609 141.412 74.5857 141.584C74.6893 141.584 74.7583 141.584 74.8618 141.584L74.8964 141.653Z" fill="#AEA6BF"/>
<path d="M66.7854 160.662C67.4757 160.662 68.0279 160.145 68.097 159.455C68.7872 152.21 66.4403 146.587 66.3367 146.38C66.0606 145.69 65.2668 145.379 64.5765 145.69C63.8862 145.966 63.5756 146.759 63.8862 147.449C63.8862 147.518 66.0606 152.693 65.4393 159.248C65.3703 159.972 65.9225 160.628 66.6473 160.697C66.6819 160.697 66.7164 160.697 66.7854 160.697V160.662Z" fill="#AEA6BF"/>
<path d="M80.2461 169.874C80.8674 169.874 81.4196 169.425 81.5577 168.804C82.2825 165.251 80.9364 158.903 80.9019 158.661C80.7638 157.937 80.039 157.488 79.3142 157.626C78.5894 157.764 78.1407 158.489 78.2788 159.213C78.6239 160.904 79.4523 165.803 78.9346 168.287C78.7965 169.011 79.2452 169.701 79.97 169.839C80.0736 169.839 80.1426 169.839 80.2461 169.839V169.874Z" fill="#AEA6BF"/>
<path d="M149.413 361.308L149.724 357.41C149.724 357.41 182.754 356.479 212.333 356.03C241.912 355.582 286.366 351.925 304.728 351.062C323.09 350.2 330.2 350.614 333.237 357.376C333.237 357.376 331.477 357.997 328.198 358.997C325.506 356.582 318.396 352.96 300.138 354.374C274.873 356.341 185.826 362.688 149.448 361.274L149.413 361.308Z" fill="#DABFAE"/>
<path d="M216.544 385.561C267.452 383.526 316.981 375.453 315.221 370.071C313.46 364.689 306.04 367.76 267.66 368.933C229.28 370.106 160.906 375.453 148.895 368.208C164.53 368.208 182.547 368.036 203.014 367.449C293.718 364.862 334.203 357.41 334.203 357.41V381.732C334.203 381.732 291.095 393.945 203.083 393.945C115.071 393.945 70.3059 390.771 70.3059 390.771C70.3059 390.771 69.8572 388.873 69.4775 385.872C109.894 389.08 167.153 387.528 216.578 385.561H216.544Z" fill="#F9E0D2"/>
<path d="M128.428 411.573C124.321 413.402 153.762 434.963 168.293 466.047C182.823 497.131 181.753 531.181 201.53 529.422C221.307 527.662 205.327 492.404 185.17 462.804C165.014 433.204 134.468 408.917 128.428 411.573Z" fill="#F4D5C6"/>
<path d="M428.083 478.777C429.774 478.777 431.258 477.57 431.569 475.845C431.914 473.913 430.637 472.084 428.704 471.739C428.6 471.739 421.766 470.394 418.66 466.081C417.521 464.495 415.312 464.115 413.69 465.253C412.102 466.392 411.723 468.6 412.862 470.221C417.659 476.949 427.047 478.708 427.427 478.777C427.634 478.812 427.841 478.846 428.048 478.846L428.083 478.777Z" fill="#D68641"/>
<path d="M363.61 436.723C370.996 436.723 381.454 436.171 386.907 434.687C388.805 434.17 389.944 432.238 389.426 430.341C388.909 428.443 386.976 427.305 385.078 427.822C378.347 429.616 360.952 429.892 357.328 429.375C355.395 429.099 353.566 430.444 353.29 432.376C353.014 434.308 354.36 436.136 356.293 436.412C357.639 436.619 360.296 436.723 363.61 436.723Z" fill="#D68641"/>
<path d="M375.897 475.742C380.694 475.742 384.077 475.224 384.353 475.19C386.285 474.879 387.597 473.051 387.286 471.119C386.976 469.187 385.147 467.841 383.214 468.186C383.041 468.186 371.824 469.911 361.987 466.703C360.124 466.082 358.122 467.117 357.5 468.98C356.879 470.843 357.915 472.844 359.778 473.465C365.439 475.328 371.306 475.776 375.897 475.776V475.742Z" fill="#D68641"/>
<path d="M369.995 516.036C378.278 516.036 387.114 511.931 387.528 511.724C389.288 510.896 390.082 508.757 389.219 506.998C388.391 505.238 386.251 504.445 384.491 505.307C384.491 505.307 375.206 509.62 368.338 508.826C366.405 508.619 364.645 509.999 364.403 511.966C364.196 513.932 365.577 515.657 367.544 515.898C368.338 516.002 369.166 516.036 369.995 516.036Z" fill="#D68641"/>
<path d="M454.141 449.591C439.093 426.615 410.791 426.373 410.412 426.373C409.687 426.373 409.065 425.787 409.065 425.062C409.065 424.338 409.652 423.717 410.377 423.717C410.86 423.717 439.162 423.958 455.246 446.521C455.246 447.97 455.246 449.246 455.28 450.178H455.246C454.797 450.178 454.383 449.971 454.141 449.591Z" fill="#D68641"/>
<path d="M331.166 426.339C331.097 425.373 331.028 424.476 330.959 423.648C334.928 422.475 382.075 408.572 392.74 401.431C392.809 401.396 392.878 401.362 392.947 401.327C393.223 402.259 393.465 403.121 393.706 403.984C381.385 411.746 333.513 425.718 331.442 426.304C331.339 426.304 331.27 426.304 331.166 426.339Z" fill="#D68641"/>
<path d="M408.064 523.523C408.099 521.487 407.719 519.866 407.408 518.486C406.442 514.484 406.2 511.758 412.827 506.032C413.207 505.721 413.552 505.445 413.897 505.135C415.933 503.479 417.866 501.926 417.797 500.753C417.763 500.167 417.176 499.166 414.691 497.579C409.686 494.474 407.477 492.715 407.581 490.576C407.65 488.713 409.479 487.54 411.239 486.643C411.93 486.298 413.655 485.401 414.035 484.953C413.793 484.47 412.62 483.331 411.481 482.227L410.929 481.675C405.89 476.776 403.577 469.325 404.026 459.527C404.06 458.802 404.647 458.216 405.406 458.25C406.131 458.25 406.718 458.906 406.684 459.63C406.235 468.773 408.237 475.362 412.793 479.743L413.345 480.295C415.761 482.607 416.969 483.78 416.727 485.332C416.486 486.85 414.967 487.713 412.447 489.024C410.308 490.128 410.239 490.679 410.239 490.679C410.204 491.645 414.622 494.405 416.106 495.337C418.971 497.131 420.351 498.787 420.489 500.581C420.662 503.099 418.315 504.997 415.588 507.205C415.243 507.481 414.898 507.791 414.553 508.067C408.823 513 409.238 514.76 409.997 517.865C410.342 519.314 410.791 521.177 410.756 523.523V523.592C409.893 523.488 409.41 523.385 409.41 523.385C409.41 523.385 409.479 524.006 409.307 524.868C408.616 524.799 408.064 524.144 408.099 523.419L408.064 523.523Z" fill="#D68641"/>
</g>
<defs>
<clipPath id="clip0_17_12">
<rect width="488" height="587" fill="white"/>
</clipPath>
</defs>
</svg>
