<svg width="382" height="333" viewBox="0 0 382 333" fill="none" xmlns="http://www.w3.org/2000/svg">
<path d="M185.857 7.15941C199.979 17.2874 214.276 27.4153 228.398 37.7179C235.895 43.1311 243.566 48.7189 248.623 56.4022C253.33 63.7362 255.596 72.2926 256.991 80.849C258.735 91.85 259.258 103.724 253.33 113.154C249.494 119.44 243.218 123.98 236.941 127.647C201.897 148.427 159.53 151.919 118.906 152.792C113.85 152.792 108.097 152.792 104.784 148.776C97.9845 136.553 97.8101 120.837 104.435 108.439C116.814 85.2145 148.023 77.3566 160.75 54.4814C167.027 43.3057 168.073 30.0346 168.77 17.2874C169.119 11.5249 169.468 5.76245 169.991 0C175.919 0 181.149 3.66702 186.031 7.15941H185.857Z" fill="#AD6726"/>
<path d="M324.988 173.398C324.988 178.113 324.465 183.002 322.721 187.542C320.455 193.13 316.27 197.495 311.737 201.337C296.569 213.91 277.39 220.021 258.386 225.085C219.681 235.388 180.278 242.722 140.351 246.913C127.45 248.31 114.373 249.358 101.472 247.961C88.0466 246.564 74.9704 242.547 62.2428 237.658C51.7819 221.942 47.0744 202.559 49.1666 183.701C49.6897 179.16 50.5614 174.62 52.3049 170.429C54.5715 165.191 58.0585 160.651 62.0685 156.634C78.8061 139.696 102.692 132.013 126.055 128.171C149.418 124.33 173.478 123.631 196.492 118.218C210.091 115.075 223.865 112.106 236.941 107.042C258.037 98.6607 324.988 98.6607 324.988 173.573V173.398Z" fill="#99602B"/>
<path d="M195.795 199.242C235.023 187.542 274.426 167.985 314.701 174.795C325.685 176.716 336.495 180.557 346.258 186.145C360.904 194.527 374.154 207.623 379.559 224.911C386.533 247.786 377.816 274.153 362.124 290.742C346.258 307.331 324.465 315.364 302.845 318.332C281.226 321.301 259.432 319.904 237.638 320.078C207.825 320.253 178.011 323.571 148.371 327.412C104.784 333 58.0583 339.287 19.004 317.11C15.6914 315.189 12.3787 313.094 9.76349 310.125C6.79955 306.807 4.88171 302.616 3.48691 298.251C-4.01013 276.074 1.74341 249.183 17.4349 233.118C28.942 221.418 44.4591 215.83 59.9762 213.56C75.4933 211.465 91.0104 212.513 106.702 212.338C136.864 212.163 167.027 207.623 196.143 198.892L195.795 199.242Z" fill="#7B532E"/>
</svg>
