<svg width="424" height="278" viewBox="0 0 424 278" fill="none" xmlns="http://www.w3.org/2000/svg">
<path d="M216.795 84.2415C256.023 72.542 295.426 52.9846 335.701 59.7947C346.685 61.7156 357.495 65.5572 367.259 71.145C381.904 79.5268 395.154 92.6233 400.559 109.911C407.533 132.786 398.816 159.153 383.124 175.742C367.259 192.331 345.465 200.364 323.845 203.332C302.226 206.301 280.432 204.904 258.639 205.078C228.825 205.253 199.011 208.571 169.372 212.412C125.784 218 79.0586 224.287 40.0043 202.11C36.6916 200.189 33.379 198.094 30.7637 195.125C27.7998 191.807 25.8819 187.616 24.4872 183.251C16.9901 161.074 22.7437 134.183 38.4351 118.118C49.9422 106.418 65.4593 100.83 80.9764 98.5603C96.4935 96.4649 112.011 97.5126 127.702 97.338C157.865 97.1634 188.027 92.6233 217.143 83.8923L216.795 84.2415Z" fill="#7B532E"/>
<path d="M4.50024 20.5L0.000244141 249.238C0.000244141 264.581 12.4217 277.002 27.7645 277.002H374.182C389.525 277.002 401.946 264.581 401.946 249.238V28.5286H27.7645C12.4663 28.5286 4.54485 35.7982 4.50024 20.5Z" fill="#7B532E"/>
<path d="M409.528 120.117H367.492C350.053 120.117 335.914 134.256 335.914 151.695V160.95C335.914 178.389 350.053 192.527 367.492 192.527H409.528C417.378 192.527 423.734 186.172 423.734 178.322V134.323C423.734 126.473 417.378 120.117 409.528 120.117V120.117Z" fill="#D68641"/>
<path d="M388.521 156.312C388.521 165.522 381.051 172.993 371.841 172.993C362.63 172.993 355.16 165.522 355.16 156.312C355.16 147.102 362.63 139.631 371.841 139.631C381.051 139.631 388.521 147.102 388.521 156.312Z" fill="#FBDFC2"/>
<path d="M374.182 265.05H361.07V259.921H374.182C375.275 259.921 376.368 259.743 377.416 259.43L378.977 264.314C377.438 264.805 375.833 265.05 374.205 265.05H374.182ZM343.921 265.05H326.794V259.921H343.921V265.05ZM309.667 265.05H292.54V259.921H309.667V265.05ZM275.413 265.05H258.286V259.921H275.413V265.05V265.05ZM241.182 265.05H224.055V259.921H241.182V265.05V265.05ZM206.95 265.05H189.846V259.921H206.95V265.05ZM172.719 265.05H155.614V259.921H172.719V265.05ZM138.487 265.05H121.36V259.921H138.487V265.05ZM104.256 265.05H87.129V259.921H104.256V265.05ZM70.0022 265.05H52.8753V259.921H70.0022V265.05ZM35.7484 265.05H18.6216V259.921H35.7484V265.05ZM389.994 248.905H384.864V231.822H389.994V248.905Z" fill="#FBDFC2"/>
<path d="M389.993 207.045H384.864V215.586H389.993V207.045Z" fill="#FBDFC2"/>
<path d="M389.993 97.0352H384.864V105.576H389.993V97.0352Z" fill="#FBDFC2"/>
<path d="M389.993 66.752H384.864V81.8941H389.993V66.752Z" fill="#FBDFC2"/>
<path d="M389.993 51.5881H384.864V45.6116H378.887V40.4824H389.993V51.5881Z" fill="#FBDFC2"/>
<path d="M362.407 45.6116H345.927V40.4824H362.407V45.6116ZM329.447 45.6116H312.967V40.4824H329.447V45.6116ZM296.487 45.6116H280.007V40.4824H296.487V45.6116ZM263.527 45.6116H247.046V40.4824H263.527V45.6116ZM230.566 45.6116H214.086V40.4824H230.566V45.6116ZM197.606 45.6116H181.126V40.4824H197.606V45.6116ZM164.646 45.6116H148.166V40.4824H164.646V45.6116ZM131.685 45.6116H115.205V40.4824H131.685V45.6116ZM98.7251 45.6116H82.2449V40.4824H98.7251V45.6116ZM65.7648 45.6116H49.2846V40.4824H65.7648V45.6116ZM32.8045 45.6116H16.2351V40.4824H32.7153V45.6116H32.8045Z" fill="#FBDFC2"/>
</svg>
