<svg width="38" height="33" viewBox="0 0 38 33" fill="none" xmlns="http://www.w3.org/2000/svg">
<path fill-rule="evenodd" clip-rule="evenodd" d="M21.467 1.24853C21.3567 2.71232 20.8943 3.86905 20.1293 4.59457C19.2648 5.41448 18.2865 5.73646 16.3004 5.85488C14.8377 5.94202 14.1263 6.10022 13.1387 6.55779C10.8759 7.6062 9.02246 9.80501 8.43726 12.1355C8.33996 12.523 8.33489 12.5275 7.99526 12.5289C7.3807 12.5315 6.50235 12.7674 5.78343 13.1228C3.4817 14.2606 2.33042 17.0369 3.15064 19.4717C3.27072 19.8281 3.36885 20.1471 3.36877 20.1805C3.36869 20.214 3.20403 20.3456 3.00286 20.4731C2.50357 20.7894 1.55586 21.8063 1.17599 22.4334C-0.131552 24.5918 -0.0880589 27.3731 1.28634 29.4842C2.23096 30.9353 3.53019 31.8611 5.32322 32.3609C5.77927 32.4881 6.94119 32.5 18.8369 32.5C30.7325 32.5 31.8944 32.4881 32.3505 32.3609C34.1435 31.8611 35.4427 30.9353 36.3874 29.4842C37.7618 27.3731 37.8053 24.5918 36.4977 22.4334C36.1178 21.8063 35.1701 20.7894 34.6708 20.4731C34.4697 20.3456 34.305 20.214 34.3049 20.1805C34.3049 20.1471 34.403 19.8281 34.5231 19.4717C35.3416 17.0418 34.1873 14.2582 31.8903 13.1228C30.9803 12.6729 30.2793 12.5308 28.9617 12.5289C28.3786 12.5282 27.9014 12.5095 27.9014 12.4874C27.9014 12.4654 28.0273 12.2497 28.1812 12.0079C30.1146 8.97158 29.8517 5.93435 27.4318 3.35102C26.0055 1.82852 23.9193 0.736751 22.0913 0.556123L21.5233 0.5L21.467 1.24853Z" fill="#FBDFC2"/>
</svg>
