<svg width="171" height="147" viewBox="0 0 171 147" fill="none" xmlns="http://www.w3.org/2000/svg">
<path fill-rule="evenodd" clip-rule="evenodd" d="M97.5822 3.43856C97.0756 10.1628 94.9516 15.4766 91.4373 18.8094C87.4659 22.5759 82.9718 24.055 73.8484 24.599C67.129 24.9993 63.8608 25.726 59.324 27.828C48.9292 32.6441 40.4151 42.7449 37.7269 53.4505C37.2799 55.2307 37.2566 55.2514 35.6964 55.2579C32.8733 55.2698 28.8384 56.3532 25.5358 57.9859C14.9623 63.2127 9.67359 75.9663 13.4415 87.1512C13.9931 88.7885 14.4439 90.2538 14.4435 90.4074C14.4431 90.561 13.6867 91.1655 12.7626 91.7513C10.469 93.2043 6.11545 97.8756 4.37039 100.756C-1.63612 110.672 -1.43632 123.448 4.87733 133.146C9.21669 139.812 15.185 144.065 23.4217 146.361C25.5167 146.945 30.8543 147 85.5 147C140.146 147 145.483 146.945 147.578 146.361C155.815 144.065 161.783 139.812 166.123 133.146C172.436 123.448 172.636 110.672 166.63 100.756C164.885 97.8756 160.531 93.2043 158.237 91.7513C157.313 91.1655 156.557 90.561 156.557 90.4074C156.556 90.2538 157.007 88.7885 157.559 87.1512C161.319 75.9889 156.016 63.2019 145.464 57.9859C141.284 55.9191 138.064 55.2664 132.011 55.2579C129.332 55.2545 127.14 55.1687 127.14 55.0672C127.14 54.966 127.719 53.975 128.426 52.8644C137.307 38.9163 136.099 24.964 124.983 13.0969C118.431 6.10291 108.848 1.08758 100.45 0.257816L97.8408 0L97.5822 3.43856Z" fill="#7B532E"/>
</svg>
