<svg width="170" height="147" viewBox="0 0 170 147" fill="none" xmlns="http://www.w3.org/2000/svg">
<path fill-rule="evenodd" clip-rule="evenodd" d="M96.5822 3.43856C96.0756 10.1628 93.9516 15.4766 90.4374 18.8094C86.4659 22.5759 81.9718 24.055 72.8484 24.599C66.129 24.9993 62.8608 25.726 58.324 27.828C47.9292 32.6441 39.4151 42.7449 36.7269 53.4505C36.2799 55.2307 36.2566 55.2514 34.6964 55.2579C31.8733 55.2698 27.8384 56.3532 24.5358 57.9859C13.9623 63.2127 8.67359 75.9663 12.4415 87.1512C12.9931 88.7885 13.4439 90.2538 13.4435 90.4074C13.4431 90.561 12.6867 91.1655 11.7626 91.7513C9.46895 93.2043 5.11545 97.8756 3.37039 100.756C-2.63612 110.672 -2.43632 123.448 3.87733 133.146C8.21669 139.812 14.185 144.065 22.4217 146.361C24.5167 146.945 29.8543 147 84.5 147C139.146 147 144.483 146.945 146.578 146.361C154.815 144.065 160.783 139.812 165.123 133.146C171.436 123.448 171.636 110.672 165.63 100.756C163.885 97.8756 159.531 93.2043 157.237 91.7513C156.313 91.1655 155.557 90.561 155.557 90.4074C155.556 90.2538 156.007 88.7885 156.559 87.1512C160.319 75.9889 155.016 63.2019 144.464 57.9859C140.284 55.9191 137.064 55.2664 131.011 55.2579C128.332 55.2545 126.14 55.1687 126.14 55.0672C126.14 54.966 126.719 53.975 127.426 52.8644C136.307 38.9163 135.099 24.964 123.983 13.0969C117.431 6.10291 107.848 1.08758 99.45 0.257816L96.8408 0L96.5822 3.43856Z" fill="#E7A770"/>
</svg>
