<svg width="38" height="33" viewBox="0 0 38 33" fill="none" xmlns="http://www.w3.org/2000/svg">
<path fill-rule="evenodd" clip-rule="evenodd" d="M35.1146 0.163165C34.89 0.257194 33.9379 0.717784 32.9988 1.18667C32.0597 1.65556 31.0826 2.13193 30.8275 2.24523L30.3638 2.45122L29.8478 2.221C26.9589 0.931703 23.3741 1.58813 21.0577 3.83069C19.2414 5.58902 18.2623 7.84662 18.1365 10.5662L18.0909 11.5508L17.7499 11.5058C12.4258 10.8036 7.99476 7.78734 5.28975 3.02399C4.94054 2.40906 4.68152 2.19469 4.23587 2.15201C3.76357 2.10666 3.47352 2.22492 3.19461 2.57644C2.8739 2.98057 2.39945 3.89145 2.19106 4.50297C1.98371 5.11139 1.78104 6.35052 1.78305 6.99768C1.78587 7.92976 2.09618 9.34324 2.48311 10.1868C2.58853 10.4165 2.66024 10.6189 2.64257 10.6366C2.62491 10.6542 2.32729 10.5824 1.98119 10.4771C1.23421 10.2497 0.939778 10.2382 0.594572 10.423C0.319594 10.5702 0 11.0785 0 11.3688C0 11.4626 0.0683732 11.8325 0.151965 12.1907C0.792565 14.9368 2.38853 17.0588 4.87803 18.4751L5.43466 18.7918L5.03727 18.9048C4.81871 18.967 4.49258 19.0564 4.31248 19.1036C3.87032 19.2194 3.69549 19.3453 3.50322 19.6868C3.1073 20.39 3.38815 20.9099 4.74551 21.9866C6.25061 23.1806 8.06967 24.0902 10.1554 24.6917C10.6165 24.8247 10.9942 24.9581 10.9946 24.988C10.9958 25.0839 10.1772 25.6184 9.5107 25.9569C8.69564 26.3709 7.71295 26.6927 6.6541 26.8922C5.98417 27.0185 5.44818 27.0541 3.82326 27.0805C1.53806 27.1176 1.30674 27.1611 1.00021 27.6114C0.781948 27.9319 0.756485 28.4016 0.93666 28.7807C1.06873 29.0585 1.71349 29.5956 2.42728 30.0226C4.37455 31.1873 8.39045 32.3583 11.841 32.7676C16.8171 33.3578 21.5199 32.8161 25.1667 31.2326C27.2397 30.3325 28.7905 29.2628 30.4125 27.6144C33.6302 24.3441 35.5023 20.6576 36.204 16.21C36.3914 15.0223 36.39 12.0616 36.2013 10.6744L36.0678 9.69246L36.9743 8.23874C37.4729 7.43923 37.9142 6.67618 37.9551 6.5431C38.1192 6.0096 37.8211 5.43964 37.2611 5.21594C37.0006 5.11191 36.8511 5.10546 36.2136 5.17074C35.8046 5.2126 35.3398 5.24691 35.1806 5.24691H34.8913L35.8181 3.39789C36.3279 2.3809 36.7642 1.4223 36.7877 1.26759C36.852 0.844268 36.5817 0.366636 36.1567 0.152717C35.7477 -0.0531995 35.6286 -0.0520141 35.1146 0.163165Z" fill="#FBDFC2"/>
</svg>
